<svg width="279" height="76" viewBox="0 0 279 76" fill="none" xmlns="http://www.w3.org/2000/svg">
<path d="M14 58.5H57" stroke="#8CC63F" stroke-width="5" stroke-linecap="round"/>
<path d="M38.5 17.5C38.5 16.1193 37.3807 15 36 15C34.6193 15 33.5 16.1193 33.5 17.5H38.5ZM34.2322 53.2678C35.2085 54.2441 36.7915 54.2441 37.7678 53.2678L53.6777 37.3579C54.654 36.3816 54.654 34.7986 53.6777 33.8223C52.7014 32.846 51.1184 32.846 50.1421 33.8223L36 47.9645L21.8579 33.8223C20.8816 32.846 19.2986 32.846 18.3223 33.8223C17.346 34.7986 17.346 36.3816 18.3223 37.3579L34.2322 53.2678ZM33.5 17.5V51.5H38.5V17.5H33.5Z" fill="#8CC63F"/>
<path d="M85.648 24.528C85.648 27.216 85.08 29.304 83.944 30.792C82.824 32.264 81.168 33 78.976 33H74.728V16.008H79C81.176 16.008 82.824 16.76 83.944 18.264C85.08 19.752 85.648 21.84 85.648 24.528ZM82.768 24.528C82.768 23.52 82.672 22.64 82.48 21.888C82.304 21.136 82.048 20.512 81.712 20.016C81.376 19.52 80.976 19.152 80.512 18.912C80.048 18.656 79.544 18.528 79 18.528H77.632V30.48H79C79.544 30.48 80.048 30.36 80.512 30.12C80.976 29.864 81.376 29.488 81.712 28.992C82.048 28.496 82.304 27.88 82.48 27.144C82.672 26.392 82.768 25.52 82.768 24.528ZM96.0241 26.904C96.0241 27.864 95.9121 28.744 95.6881 29.544C95.4801 30.344 95.1681 31.032 94.7521 31.608C94.3521 32.168 93.8641 32.608 93.2881 32.928C92.7121 33.248 92.0561 33.408 91.3201 33.408C90.5841 33.408 89.9281 33.248 89.3521 32.928C88.7761 32.608 88.2801 32.168 87.8641 31.608C87.4641 31.032 87.1521 30.344 86.9281 29.544C86.7201 28.744 86.6161 27.864 86.6161 26.904C86.6161 25.928 86.7201 25.04 86.9281 24.24C87.1521 23.424 87.4641 22.728 87.8641 22.152C88.2641 21.576 88.7521 21.136 89.3281 20.832C89.9201 20.512 90.5841 20.352 91.3201 20.352C92.0561 20.352 92.7121 20.512 93.2881 20.832C93.8641 21.136 94.3521 21.576 94.7521 22.152C95.1681 22.728 95.4801 23.424 95.6881 24.24C95.9121 25.04 96.0241 25.928 96.0241 26.904ZM93.3361 26.88C93.3361 26.288 93.2961 25.744 93.2161 25.248C93.1361 24.736 93.0081 24.296 92.8321 23.928C92.6721 23.544 92.4641 23.248 92.2081 23.04C91.9681 22.816 91.6721 22.704 91.3201 22.704C90.9681 22.704 90.6641 22.816 90.4081 23.04C90.1681 23.248 89.9681 23.544 89.8081 23.928C89.6481 24.296 89.5281 24.736 89.4481 25.248C89.3681 25.744 89.3281 26.288 89.3281 26.88C89.3281 27.456 89.3681 28 89.4481 28.512C89.5281 29.024 89.6481 29.464 89.8081 29.832C89.9681 30.2 90.1681 30.496 90.4081 30.72C90.6641 30.928 90.9681 31.032 91.3201 31.032C91.6721 31.032 91.9761 30.928 92.2321 30.72C92.4881 30.496 92.6961 30.2 92.8561 29.832C93.0161 29.464 93.1361 29.024 93.2161 28.512C93.2961 28 93.3361 27.456 93.3361 26.88ZM108.187 33H105.283L103.531 24.624H103.507L101.755 33H98.9226L96.3066 20.76H99.0906L100.579 29.76H100.627L102.379 20.76H104.779L106.579 29.76H106.627L108.139 20.76H110.851L108.187 33ZM114.589 20.76V22.704H114.637C114.861 22.048 115.229 21.496 115.741 21.048C116.269 20.584 116.917 20.352 117.685 20.352C118.357 20.352 118.893 20.496 119.293 20.784C119.709 21.056 120.029 21.424 120.253 21.888C120.477 22.352 120.629 22.888 120.709 23.496C120.789 24.088 120.829 24.696 120.829 25.32V33H118.117V25.32C118.117 25.016 118.101 24.712 118.069 24.408C118.037 24.088 117.965 23.8 117.853 23.544C117.757 23.288 117.605 23.088 117.397 22.944C117.205 22.784 116.949 22.704 116.629 22.704C116.021 22.704 115.533 23.008 115.165 23.616C114.813 24.224 114.637 24.992 114.637 25.92V33H111.925V20.76H114.589ZM123.034 33V14.856H125.77V33H123.034ZM136.762 26.904C136.762 27.864 136.65 28.744 136.426 29.544C136.218 30.344 135.906 31.032 135.49 31.608C135.09 32.168 134.602 32.608 134.026 32.928C133.45 33.248 132.794 33.408 132.058 33.408C131.322 33.408 130.666 33.248 130.09 32.928C129.514 32.608 129.018 32.168 128.602 31.608C128.202 31.032 127.89 30.344 127.666 29.544C127.458 28.744 127.354 27.864 127.354 26.904C127.354 25.928 127.458 25.04 127.666 24.24C127.89 23.424 128.202 22.728 128.602 22.152C129.002 21.576 129.49 21.136 130.066 20.832C130.658 20.512 131.322 20.352 132.058 20.352C132.794 20.352 133.45 20.512 134.026 20.832C134.602 21.136 135.09 21.576 135.49 22.152C135.906 22.728 136.218 23.424 136.426 24.24C136.65 25.04 136.762 25.928 136.762 26.904ZM134.074 26.88C134.074 26.288 134.034 25.744 133.954 25.248C133.874 24.736 133.746 24.296 133.57 23.928C133.41 23.544 133.202 23.248 132.946 23.04C132.706 22.816 132.41 22.704 132.058 22.704C131.706 22.704 131.402 22.816 131.146 23.04C130.906 23.248 130.706 23.544 130.546 23.928C130.386 24.296 130.266 24.736 130.186 25.248C130.106 25.744 130.066 26.288 130.066 26.88C130.066 27.456 130.106 28 130.186 28.512C130.266 29.024 130.386 29.464 130.546 29.832C130.706 30.2 130.906 30.496 131.146 30.72C131.402 30.928 131.706 31.032 132.058 31.032C132.41 31.032 132.714 30.928 132.97 30.72C133.226 30.496 133.434 30.2 133.594 29.832C133.754 29.464 133.874 29.024 133.954 28.512C134.034 28 134.074 27.456 134.074 26.88ZM143.309 27.264H142.517C142.181 27.264 141.853 27.296 141.533 27.36C141.229 27.408 140.957 27.512 140.717 27.672C140.477 27.832 140.285 28.056 140.141 28.344C139.997 28.616 139.925 28.968 139.925 29.4C139.925 30.04 140.061 30.512 140.333 30.816C140.621 31.12 140.949 31.272 141.317 31.272C141.685 31.272 141.997 31.168 142.253 30.96C142.509 30.752 142.709 30.488 142.853 30.168C143.013 29.848 143.125 29.496 143.189 29.112C143.269 28.712 143.309 28.328 143.309 27.96V27.264ZM143.405 31.176C143.229 31.848 142.909 32.376 142.445 32.76C141.981 33.128 141.365 33.312 140.597 33.312C140.245 33.312 139.885 33.248 139.517 33.12C139.149 32.992 138.813 32.784 138.509 32.496C138.221 32.192 137.981 31.808 137.789 31.344C137.597 30.864 137.501 30.288 137.501 29.616C137.501 28.752 137.653 28.048 137.957 27.504C138.277 26.944 138.677 26.504 139.157 26.184C139.653 25.864 140.197 25.648 140.789 25.536C141.397 25.408 141.989 25.344 142.565 25.344H143.237V24.96C143.237 24.144 143.069 23.56 142.733 23.208C142.413 22.84 141.981 22.656 141.437 22.656C140.973 22.656 140.549 22.768 140.165 22.992C139.797 23.2 139.477 23.48 139.205 23.832L137.909 22.128C138.357 21.568 138.925 21.136 139.613 20.832C140.301 20.512 140.981 20.352 141.653 20.352C142.405 20.352 143.037 20.472 143.549 20.712C144.077 20.952 144.501 21.304 144.821 21.768C145.141 22.216 145.365 22.776 145.493 23.448C145.637 24.12 145.709 24.88 145.709 25.728V33H143.453V31.176H143.405ZM153.834 33V31.248H153.786C153.61 31.856 153.306 32.368 152.874 32.784C152.458 33.2 151.85 33.408 151.05 33.408C150.426 33.408 149.866 33.24 149.37 32.904C148.874 32.568 148.458 32.104 148.122 31.512C147.786 30.904 147.53 30.2 147.354 29.4C147.178 28.584 147.09 27.704 147.09 26.76C147.09 25.832 147.17 24.976 147.33 24.192C147.506 23.408 147.762 22.736 148.098 22.176C148.434 21.6 148.842 21.152 149.322 20.832C149.818 20.512 150.394 20.352 151.05 20.352C151.722 20.352 152.29 20.544 152.754 20.928C153.218 21.296 153.538 21.76 153.714 22.32H153.786V14.856H156.45V33H153.834ZM153.882 26.88C153.882 26.288 153.834 25.744 153.738 25.248C153.658 24.736 153.53 24.296 153.354 23.928C153.194 23.544 152.978 23.248 152.706 23.04C152.45 22.816 152.154 22.704 151.818 22.704C151.466 22.704 151.162 22.816 150.906 23.04C150.65 23.248 150.442 23.544 150.282 23.928C150.122 24.296 150.002 24.736 149.922 25.248C149.842 25.744 149.802 26.288 149.802 26.88C149.802 27.456 149.842 28 149.922 28.512C150.002 29.008 150.122 29.448 150.282 29.832C150.442 30.2 150.65 30.496 150.906 30.72C151.162 30.928 151.466 31.032 151.818 31.032C152.17 31.032 152.474 30.928 152.73 30.72C152.986 30.496 153.194 30.2 153.354 29.832C153.53 29.448 153.658 29.008 153.738 28.512C153.834 28 153.882 27.456 153.882 26.88ZM167.572 33H164.332L161.092 20.76H163.948L166.012 30.144H166.06L168.052 20.76H170.812L167.572 33ZM180.408 26.904C180.408 27.864 180.296 28.744 180.072 29.544C179.864 30.344 179.552 31.032 179.136 31.608C178.736 32.168 178.248 32.608 177.672 32.928C177.096 33.248 176.44 33.408 175.704 33.408C174.968 33.408 174.312 33.248 173.736 32.928C173.16 32.608 172.664 32.168 172.248 31.608C171.848 31.032 171.536 30.344 171.312 29.544C171.104 28.744 171 27.864 171 26.904C171 25.928 171.104 25.04 171.312 24.24C171.536 23.424 171.848 22.728 172.248 22.152C172.648 21.576 173.136 21.136 173.712 20.832C174.304 20.512 174.968 20.352 175.704 20.352C176.44 20.352 177.096 20.512 177.672 20.832C178.248 21.136 178.736 21.576 179.136 22.152C179.552 22.728 179.864 23.424 180.072 24.24C180.296 25.04 180.408 25.928 180.408 26.904ZM177.72 26.88C177.72 26.288 177.68 25.744 177.6 25.248C177.52 24.736 177.392 24.296 177.216 23.928C177.056 23.544 176.848 23.248 176.592 23.04C176.352 22.816 176.056 22.704 175.704 22.704C175.352 22.704 175.048 22.816 174.792 23.04C174.552 23.248 174.352 23.544 174.192 23.928C174.032 24.296 173.912 24.736 173.832 25.248C173.752 25.744 173.712 26.288 173.712 26.88C173.712 27.456 173.752 28 173.832 28.512C173.912 29.024 174.032 29.464 174.192 29.832C174.352 30.2 174.552 30.496 174.792 30.72C175.048 30.928 175.352 31.032 175.704 31.032C176.056 31.032 176.36 30.928 176.616 30.72C176.872 30.496 177.08 30.2 177.24 29.832C177.4 29.464 177.52 29.024 177.6 28.512C177.68 28 177.72 27.456 177.72 26.88ZM190.674 26.904C190.674 27.864 190.562 28.744 190.338 29.544C190.13 30.344 189.818 31.032 189.402 31.608C189.002 32.168 188.514 32.608 187.938 32.928C187.362 33.248 186.706 33.408 185.97 33.408C185.234 33.408 184.578 33.248 184.002 32.928C183.426 32.608 182.93 32.168 182.514 31.608C182.114 31.032 181.802 30.344 181.578 29.544C181.37 28.744 181.266 27.864 181.266 26.904C181.266 25.928 181.37 25.04 181.578 24.24C181.802 23.424 182.114 22.728 182.514 22.152C182.914 21.576 183.402 21.136 183.978 20.832C184.57 20.512 185.234 20.352 185.97 20.352C186.706 20.352 187.362 20.512 187.938 20.832C188.514 21.136 189.002 21.576 189.402 22.152C189.818 22.728 190.13 23.424 190.338 24.24C190.562 25.04 190.674 25.928 190.674 26.904ZM187.986 26.88C187.986 26.288 187.946 25.744 187.866 25.248C187.786 24.736 187.658 24.296 187.482 23.928C187.322 23.544 187.114 23.248 186.858 23.04C186.618 22.816 186.322 22.704 185.97 22.704C185.618 22.704 185.314 22.816 185.058 23.04C184.818 23.248 184.618 23.544 184.458 23.928C184.298 24.296 184.178 24.736 184.098 25.248C184.018 25.744 183.978 26.288 183.978 26.88C183.978 27.456 184.018 28 184.098 28.512C184.178 29.024 184.298 29.464 184.458 29.832C184.618 30.2 184.818 30.496 185.058 30.72C185.314 30.928 185.618 31.032 185.97 31.032C186.322 31.032 186.626 30.928 186.882 30.72C187.138 30.496 187.346 30.2 187.506 29.832C187.666 29.464 187.786 29.024 187.866 28.512C187.946 28 187.986 27.456 187.986 26.88ZM195.013 23.112C195.221 22.2 195.549 21.512 195.997 21.048C196.445 20.584 196.973 20.352 197.581 20.352C197.661 20.352 197.725 20.352 197.773 20.352C197.837 20.352 197.909 20.368 197.989 20.4L197.845 23.184C197.669 23.136 197.477 23.112 197.269 23.112C196.917 23.112 196.605 23.224 196.333 23.448C196.061 23.656 195.829 23.936 195.637 24.288C195.445 24.64 195.301 25.04 195.205 25.488C195.109 25.936 195.061 26.392 195.061 26.856V33H192.301V20.76H194.965V23.112H195.013ZM209.422 33L208.582 29.4H204.118L203.254 33H200.374L204.598 16.008H208.27L212.422 33H209.422ZM206.422 18.72H206.326L204.478 27.144H208.222L206.422 18.72ZM215.85 20.76V22.704H215.898C216.122 22.048 216.49 21.496 217.002 21.048C217.53 20.584 218.178 20.352 218.946 20.352C219.618 20.352 220.154 20.496 220.554 20.784C220.97 21.056 221.29 21.424 221.514 21.888C221.738 22.352 221.89 22.888 221.97 23.496C222.05 24.088 222.09 24.696 222.09 25.32V33H219.378V25.32C219.378 25.016 219.362 24.712 219.33 24.408C219.298 24.088 219.226 23.8 219.114 23.544C219.018 23.288 218.866 23.088 218.658 22.944C218.466 22.784 218.21 22.704 217.89 22.704C217.282 22.704 216.794 23.008 216.426 23.616C216.074 24.224 215.898 24.992 215.898 25.92V33H213.186V20.76H215.85ZM230.319 33V31.248H230.271C230.095 31.856 229.791 32.368 229.359 32.784C228.943 33.2 228.335 33.408 227.535 33.408C226.911 33.408 226.351 33.24 225.855 32.904C225.359 32.568 224.943 32.104 224.607 31.512C224.271 30.904 224.015 30.2 223.839 29.4C223.663 28.584 223.575 27.704 223.575 26.76C223.575 25.832 223.655 24.976 223.815 24.192C223.991 23.408 224.247 22.736 224.583 22.176C224.919 21.6 225.327 21.152 225.807 20.832C226.303 20.512 226.879 20.352 227.535 20.352C228.207 20.352 228.775 20.544 229.239 20.928C229.703 21.296 230.023 21.76 230.199 22.32H230.271V14.856H232.935V33H230.319ZM230.367 26.88C230.367 26.288 230.319 25.744 230.223 25.248C230.143 24.736 230.015 24.296 229.839 23.928C229.679 23.544 229.463 23.248 229.191 23.04C228.935 22.816 228.639 22.704 228.303 22.704C227.951 22.704 227.647 22.816 227.391 23.04C227.135 23.248 226.927 23.544 226.767 23.928C226.607 24.296 226.487 24.736 226.407 25.248C226.327 25.744 226.287 26.288 226.287 26.88C226.287 27.456 226.327 28 226.407 28.512C226.487 29.008 226.607 29.448 226.767 29.832C226.927 30.2 227.135 30.496 227.391 30.72C227.647 30.928 227.951 31.032 228.303 31.032C228.655 31.032 228.959 30.928 229.215 30.72C229.471 30.496 229.679 30.2 229.839 29.832C230.015 29.448 230.143 29.008 230.223 28.512C230.319 28 230.367 27.456 230.367 26.88ZM238.002 23.112C238.21 22.2 238.538 21.512 238.986 21.048C239.434 20.584 239.962 20.352 240.57 20.352C240.65 20.352 240.714 20.352 240.762 20.352C240.826 20.352 240.898 20.368 240.978 20.4L240.834 23.184C240.658 23.136 240.466 23.112 240.258 23.112C239.906 23.112 239.594 23.224 239.322 23.448C239.05 23.656 238.818 23.936 238.626 24.288C238.434 24.64 238.29 25.04 238.194 25.488C238.098 25.936 238.05 26.392 238.05 26.856V33H235.29V20.76H237.954V23.112H238.002ZM250.188 26.904C250.188 27.864 250.076 28.744 249.852 29.544C249.644 30.344 249.332 31.032 248.916 31.608C248.516 32.168 248.028 32.608 247.452 32.928C246.876 33.248 246.22 33.408 245.484 33.408C244.748 33.408 244.092 33.248 243.516 32.928C242.94 32.608 242.444 32.168 242.028 31.608C241.628 31.032 241.316 30.344 241.092 29.544C240.884 28.744 240.78 27.864 240.78 26.904C240.78 25.928 240.884 25.04 241.092 24.24C241.316 23.424 241.628 22.728 242.028 22.152C242.428 21.576 242.916 21.136 243.492 20.832C244.084 20.512 244.748 20.352 245.484 20.352C246.22 20.352 246.876 20.512 247.452 20.832C248.028 21.136 248.516 21.576 248.916 22.152C249.332 22.728 249.644 23.424 249.852 24.24C250.076 25.04 250.188 25.928 250.188 26.904ZM247.5 26.88C247.5 26.288 247.46 25.744 247.38 25.248C247.3 24.736 247.172 24.296 246.996 23.928C246.836 23.544 246.628 23.248 246.372 23.04C246.132 22.816 245.836 22.704 245.484 22.704C245.132 22.704 244.828 22.816 244.572 23.04C244.332 23.248 244.132 23.544 243.972 23.928C243.812 24.296 243.692 24.736 243.612 25.248C243.532 25.744 243.492 26.288 243.492 26.88C243.492 27.456 243.532 28 243.612 28.512C243.692 29.024 243.812 29.464 243.972 29.832C244.132 30.2 244.332 30.496 244.572 30.72C244.828 30.928 245.132 31.032 245.484 31.032C245.836 31.032 246.14 30.928 246.396 30.72C246.652 30.496 246.86 30.2 247.02 29.832C247.18 29.464 247.3 29.024 247.38 28.512C247.46 28 247.5 27.456 247.5 26.88ZM254.695 17.208C254.695 17.688 254.543 18.088 254.239 18.408C253.935 18.728 253.559 18.888 253.111 18.888C252.647 18.888 252.263 18.728 251.959 18.408C251.671 18.088 251.527 17.688 251.527 17.208C251.527 16.744 251.671 16.344 251.959 16.008C252.263 15.672 252.647 15.504 253.111 15.504C253.575 15.504 253.951 15.672 254.239 16.008C254.543 16.344 254.695 16.744 254.695 17.208ZM251.767 33V20.76H254.455V33H251.767ZM262.784 33V31.248H262.736C262.56 31.856 262.256 32.368 261.824 32.784C261.408 33.2 260.8 33.408 260 33.408C259.376 33.408 258.816 33.24 258.32 32.904C257.824 32.568 257.408 32.104 257.072 31.512C256.736 30.904 256.48 30.2 256.304 29.4C256.128 28.584 256.04 27.704 256.04 26.76C256.04 25.832 256.12 24.976 256.28 24.192C256.456 23.408 256.712 22.736 257.048 22.176C257.384 21.6 257.792 21.152 258.272 20.832C258.768 20.512 259.344 20.352 260 20.352C260.672 20.352 261.24 20.544 261.704 20.928C262.168 21.296 262.488 21.76 262.664 22.32H262.736V14.856H265.4V33H262.784ZM262.832 26.88C262.832 26.288 262.784 25.744 262.688 25.248C262.608 24.736 262.48 24.296 262.304 23.928C262.144 23.544 261.928 23.248 261.656 23.04C261.4 22.816 261.104 22.704 260.768 22.704C260.416 22.704 260.112 22.816 259.856 23.04C259.6 23.248 259.392 23.544 259.232 23.928C259.072 24.296 258.952 24.736 258.872 25.248C258.792 25.744 258.752 26.288 258.752 26.88C258.752 27.456 258.792 28 258.872 28.512C258.952 29.008 259.072 29.448 259.232 29.832C259.392 30.2 259.6 30.496 259.856 30.72C260.112 30.928 260.416 31.032 260.768 31.032C261.12 31.032 261.424 30.928 261.68 30.72C261.936 30.496 262.144 30.2 262.304 29.832C262.48 29.448 262.608 29.008 262.688 28.512C262.784 28 262.832 27.456 262.832 26.88ZM80.128 41.6C81.04 41.6 81.848 41.768 82.552 42.104C83.256 42.44 83.84 42.952 84.304 43.64L82.96 45.104C82.608 44.592 82.2 44.208 81.736 43.952C81.272 43.696 80.768 43.568 80.224 43.568C79.568 43.568 79 43.752 78.52 44.12C78.056 44.488 77.664 44.992 77.344 45.632C77.024 46.256 76.784 46.992 76.624 47.84C76.48 48.672 76.408 49.552 76.408 50.48C76.408 51.456 76.488 52.368 76.648 53.216C76.824 54.048 77.072 54.776 77.392 55.4C77.728 56.008 78.144 56.488 78.64 56.84C79.136 57.192 79.72 57.368 80.392 57.368C81.288 57.368 81.968 57.176 82.432 56.792V51.536H80.2V49.664H84.52V57.944C84.024 58.36 83.44 58.696 82.768 58.952C82.112 59.192 81.304 59.312 80.344 59.312C79.368 59.312 78.496 59.104 77.728 58.688C76.96 58.256 76.304 57.656 75.76 56.888C75.232 56.12 74.824 55.192 74.536 54.104C74.264 53.016 74.128 51.808 74.128 50.48C74.128 49.2 74.264 48.024 74.536 46.952C74.808 45.864 75.2 44.928 75.712 44.144C76.224 43.344 76.848 42.72 77.584 42.272C78.336 41.824 79.184 41.6 80.128 41.6ZM94.8644 53C94.8644 53.96 94.7604 54.832 94.5524 55.616C94.3604 56.4 94.0724 57.072 93.6884 57.632C93.3204 58.192 92.8644 58.632 92.3204 58.952C91.7764 59.256 91.1604 59.408 90.4724 59.408C89.8004 59.408 89.1924 59.256 88.6484 58.952C88.1044 58.632 87.6404 58.192 87.2564 57.632C86.8884 57.072 86.6004 56.4 86.3924 55.616C86.2004 54.832 86.1044 53.96 86.1044 53C86.1044 52.04 86.2004 51.16 86.3924 50.36C86.6004 49.56 86.8884 48.88 87.2564 48.32C87.6244 47.76 88.0804 47.328 88.6244 47.024C89.1684 46.704 89.7844 46.544 90.4724 46.544C91.1604 46.544 91.7764 46.704 92.3204 47.024C92.8644 47.328 93.3204 47.76 93.6884 48.32C94.0724 48.88 94.3604 49.56 94.5524 50.36C94.7604 51.16 94.8644 52.04 94.8644 53ZM92.7524 52.976C92.7524 52.32 92.7044 51.712 92.6084 51.152C92.5284 50.576 92.3924 50.08 92.2004 49.664C92.0084 49.248 91.7684 48.92 91.4804 48.68C91.1924 48.44 90.8564 48.32 90.4724 48.32C90.0884 48.32 89.7524 48.44 89.4644 48.68C89.1764 48.92 88.9364 49.248 88.7444 49.664C88.5684 50.08 88.4324 50.576 88.3364 51.152C88.2564 51.712 88.2164 52.32 88.2164 52.976C88.2164 53.632 88.2564 54.24 88.3364 54.8C88.4324 55.36 88.5684 55.848 88.7444 56.264C88.9364 56.68 89.1764 57.008 89.4644 57.248C89.7524 57.488 90.0884 57.608 90.4724 57.608C90.8724 57.608 91.2164 57.488 91.5044 57.248C91.7924 57.008 92.0244 56.68 92.2004 56.264C92.3924 55.848 92.5284 55.36 92.6084 54.8C92.7044 54.24 92.7524 53.632 92.7524 52.976ZM104.826 53C104.826 53.96 104.722 54.832 104.514 55.616C104.322 56.4 104.034 57.072 103.65 57.632C103.282 58.192 102.826 58.632 102.282 58.952C101.738 59.256 101.122 59.408 100.434 59.408C99.7623 59.408 99.1543 59.256 98.6103 58.952C98.0663 58.632 97.6023 58.192 97.2182 57.632C96.8502 57.072 96.5622 56.4 96.3543 55.616C96.1622 54.832 96.0662 53.96 96.0662 53C96.0662 52.04 96.1622 51.16 96.3543 50.36C96.5622 49.56 96.8502 48.88 97.2182 48.32C97.5863 47.76 98.0423 47.328 98.5863 47.024C99.1303 46.704 99.7463 46.544 100.434 46.544C101.122 46.544 101.738 46.704 102.282 47.024C102.826 47.328 103.282 47.76 103.65 48.32C104.034 48.88 104.322 49.56 104.514 50.36C104.722 51.16 104.826 52.04 104.826 53ZM102.714 52.976C102.714 52.32 102.666 51.712 102.57 51.152C102.49 50.576 102.354 50.08 102.162 49.664C101.97 49.248 101.73 48.92 101.442 48.68C101.154 48.44 100.818 48.32 100.434 48.32C100.05 48.32 99.7143 48.44 99.4262 48.68C99.1383 48.92 98.8983 49.248 98.7062 49.664C98.5303 50.08 98.3943 50.576 98.2983 51.152C98.2183 51.712 98.1782 52.32 98.1782 52.976C98.1782 53.632 98.2183 54.24 98.2983 54.8C98.3943 55.36 98.5303 55.848 98.7062 56.264C98.8983 56.68 99.1383 57.008 99.4262 57.248C99.7143 57.488 100.05 57.608 100.434 57.608C100.834 57.608 101.178 57.488 101.466 57.248C101.754 57.008 101.986 56.68 102.162 56.264C102.354 55.848 102.49 55.36 102.57 54.8C102.666 54.24 102.714 53.632 102.714 52.976ZM112.724 52.976C112.724 52.32 112.676 51.712 112.58 51.152C112.484 50.576 112.332 50.08 112.124 49.664C111.932 49.248 111.692 48.92 111.404 48.68C111.116 48.44 110.78 48.32 110.396 48.32C109.996 48.32 109.652 48.44 109.364 48.68C109.092 48.92 108.86 49.248 108.668 49.664C108.492 50.08 108.356 50.576 108.26 51.152C108.18 51.712 108.14 52.32 108.14 52.976C108.14 53.632 108.18 54.24 108.26 54.8C108.356 55.36 108.492 55.848 108.668 56.264C108.86 56.68 109.092 57.008 109.364 57.248C109.652 57.488 109.996 57.608 110.396 57.608C110.78 57.608 111.116 57.488 111.404 57.248C111.708 57.008 111.956 56.68 112.148 56.264C112.34 55.848 112.484 55.36 112.58 54.8C112.676 54.24 112.724 53.632 112.724 52.976ZM112.724 46.952H114.716V59C114.716 59.816 114.636 60.568 114.476 61.256C114.332 61.96 114.076 62.568 113.708 63.08C113.356 63.608 112.884 64.016 112.292 64.304C111.716 64.608 111.004 64.76 110.156 64.76C109.34 64.76 108.564 64.584 107.828 64.232C107.108 63.896 106.516 63.44 106.052 62.864L107.324 61.424C107.676 61.856 108.1 62.208 108.596 62.48C109.092 62.768 109.636 62.912 110.228 62.912C110.724 62.912 111.132 62.808 111.452 62.6C111.772 62.408 112.028 62.136 112.22 61.784C112.412 61.432 112.54 61.016 112.604 60.536C112.684 60.056 112.724 59.544 112.724 59V57.104H112.676C112.484 57.76 112.172 58.312 111.74 58.76C111.324 59.192 110.7 59.408 109.868 59.408C109.26 59.408 108.716 59.248 108.236 58.928C107.756 58.592 107.348 58.136 107.012 57.56C106.692 56.984 106.444 56.304 106.268 55.52C106.108 54.72 106.028 53.848 106.028 52.904C106.028 51.976 106.108 51.128 106.268 50.36C106.428 49.576 106.668 48.904 106.988 48.344C107.324 47.768 107.732 47.328 108.212 47.024C108.692 46.704 109.244 46.544 109.868 46.544C110.572 46.544 111.164 46.744 111.644 47.144C112.14 47.544 112.476 48.056 112.652 48.68H112.724V46.952ZM117.271 59V40.856H119.335V59H117.271ZM123.282 53.504C123.282 54.08 123.33 54.616 123.426 55.112C123.538 55.608 123.69 56.04 123.882 56.408C124.09 56.776 124.346 57.064 124.65 57.272C124.954 57.48 125.306 57.584 125.706 57.584C126.25 57.584 126.682 57.416 127.002 57.08C127.322 56.744 127.578 56.344 127.77 55.88L129.306 56.768C128.986 57.536 128.522 58.168 127.914 58.664C127.322 59.16 126.562 59.408 125.634 59.408C124.258 59.408 123.178 58.848 122.394 57.728C121.61 56.592 121.218 55.016 121.218 53C121.218 52.04 121.322 51.168 121.53 50.384C121.738 49.584 122.034 48.904 122.418 48.344C122.802 47.768 123.266 47.328 123.81 47.024C124.354 46.704 124.954 46.544 125.61 46.544C126.346 46.544 126.97 46.704 127.482 47.024C127.994 47.328 128.41 47.752 128.73 48.296C129.066 48.824 129.306 49.456 129.45 50.192C129.594 50.912 129.666 51.688 129.666 52.52V53.504H123.282ZM127.602 51.848C127.602 50.792 127.434 49.944 127.098 49.304C126.778 48.648 126.266 48.32 125.562 48.32C125.146 48.32 124.794 48.448 124.506 48.704C124.234 48.944 124.01 49.248 123.834 49.616C123.658 49.968 123.53 50.352 123.45 50.768C123.37 51.168 123.33 51.528 123.33 51.848H127.602ZM144.015 46.784C144.015 47.6 143.895 48.32 143.655 48.944C143.415 49.568 143.087 50.088 142.671 50.504C142.271 50.904 141.807 51.208 141.279 51.416C140.767 51.624 140.223 51.728 139.647 51.728H137.343V59H135.207V42.008H139.503C140.015 42.008 140.535 42.088 141.063 42.248C141.607 42.392 142.095 42.648 142.527 43.016C142.959 43.384 143.311 43.88 143.583 44.504C143.871 45.112 144.015 45.872 144.015 46.784ZM141.879 46.808C141.879 45.784 141.639 45.04 141.159 44.576C140.679 44.096 140.055 43.856 139.287 43.856H137.343V49.928H139.287C140.055 49.928 140.679 49.672 141.159 49.16C141.639 48.632 141.879 47.848 141.879 46.808ZM145.517 59V40.856H147.581V59H145.517ZM155.319 59C155.255 58.632 155.207 58.264 155.175 57.896C155.143 57.528 155.127 57.232 155.127 57.008H155.079C154.903 57.728 154.583 58.296 154.119 58.712C153.671 59.112 153.047 59.312 152.247 59.312C151.911 59.312 151.567 59.248 151.215 59.12C150.863 58.992 150.543 58.784 150.255 58.496C149.983 58.208 149.751 57.84 149.559 57.392C149.383 56.944 149.295 56.392 149.295 55.736C149.295 54.872 149.447 54.168 149.751 53.624C150.071 53.064 150.463 52.632 150.927 52.328C151.407 52.008 151.935 51.792 152.511 51.68C153.087 51.568 153.639 51.512 154.167 51.512H154.959V50.984C154.959 50.04 154.775 49.36 154.407 48.944C154.055 48.512 153.575 48.296 152.967 48.296C152.519 48.296 152.103 48.408 151.719 48.632C151.335 48.856 151.007 49.152 150.735 49.52L149.703 48.248C150.103 47.704 150.623 47.288 151.263 47C151.903 46.696 152.535 46.544 153.159 46.544C153.847 46.544 154.423 46.656 154.887 46.88C155.367 47.104 155.751 47.432 156.039 47.864C156.327 48.296 156.527 48.832 156.639 49.472C156.767 50.096 156.831 50.808 156.831 51.608V56.48C156.831 56.896 156.847 57.352 156.879 57.848C156.911 58.328 156.951 58.712 156.999 59H155.319ZM155.007 53.072H154.119C153.751 53.072 153.391 53.104 153.039 53.168C152.703 53.232 152.399 53.36 152.127 53.552C151.855 53.728 151.631 53.976 151.455 54.296C151.295 54.616 151.215 55.024 151.215 55.52C151.215 56.256 151.375 56.8 151.695 57.152C152.015 57.488 152.383 57.656 152.799 57.656C153.215 57.656 153.559 57.536 153.831 57.296C154.119 57.04 154.351 56.72 154.527 56.336C154.703 55.952 154.823 55.536 154.887 55.088C154.967 54.624 155.007 54.184 155.007 53.768V53.072ZM162.832 61.184C162.688 61.728 162.52 62.216 162.328 62.648C162.152 63.096 161.928 63.472 161.656 63.776C161.4 64.096 161.088 64.336 160.72 64.496C160.352 64.672 159.92 64.76 159.424 64.76C159.152 64.76 158.888 64.736 158.632 64.688C158.376 64.656 158.168 64.616 158.008 64.568L158.272 62.72C158.576 62.832 158.896 62.888 159.232 62.888C159.696 62.888 160.04 62.744 160.264 62.456C160.504 62.168 160.688 61.768 160.816 61.256L161.272 59.36L157.72 46.952H159.88L162.256 56.6H162.304L164.464 46.952H166.552L162.832 61.184Z" fill="black"/>
<rect x="1" y="1" width="277" height="74" rx="5" stroke="#006CAD" stroke-width="2"/>
</svg>
