<svg width="279" height="76" viewBox="0 0 279 76" fill="none" xmlns="http://www.w3.org/2000/svg">
<path d="M16.3431 58.5H59.3431" stroke="#8CC63F" stroke-width="5" stroke-linecap="round"/>
<path d="M40.8431 17.5C40.8431 16.1193 39.7239 15 38.3431 15C36.9624 15 35.8431 16.1193 35.8431 17.5H40.8431ZM36.5754 53.2678C37.5517 54.2441 39.1346 54.2441 40.1109 53.2678L56.0208 37.3579C56.9971 36.3816 56.9971 34.7986 56.0208 33.8223C55.0445 32.846 53.4616 32.846 52.4853 33.8223L38.3431 47.9645L24.201 33.8223C23.2247 32.846 21.6418 32.846 20.6655 33.8223C19.6892 34.7986 19.6892 36.3816 20.6655 37.3579L36.5754 53.2678ZM35.8431 17.5V51.5H40.8431V17.5H35.8431Z" fill="#8CC63F"/>
<path d="M87.9911 24.528C87.9911 27.216 87.4231 29.304 86.2871 30.792C85.1671 32.264 83.5111 33 81.3191 33H77.0711V16.008H81.3431C83.5191 16.008 85.1671 16.76 86.2871 18.264C87.4231 19.752 87.9911 21.84 87.9911 24.528ZM85.1111 24.528C85.1111 23.52 85.0151 22.64 84.8231 21.888C84.6471 21.136 84.3911 20.512 84.0551 20.016C83.7191 19.52 83.3191 19.152 82.8551 18.912C82.3911 18.656 81.8871 18.528 81.3431 18.528H79.9751V30.48H81.3431C81.8871 30.48 82.3911 30.36 82.8551 30.12C83.3191 29.864 83.7191 29.488 84.0551 28.992C84.3911 28.496 84.6471 27.88 84.8231 27.144C85.0151 26.392 85.1111 25.52 85.1111 24.528ZM98.3672 26.904C98.3672 27.864 98.2552 28.744 98.0312 29.544C97.8232 30.344 97.5112 31.032 97.0952 31.608C96.6952 32.168 96.2072 32.608 95.6312 32.928C95.0552 33.248 94.3992 33.408 93.6632 33.408C92.9272 33.408 92.2712 33.248 91.6952 32.928C91.1192 32.608 90.6232 32.168 90.2072 31.608C89.8072 31.032 89.4952 30.344 89.2712 29.544C89.0632 28.744 88.9592 27.864 88.9592 26.904C88.9592 25.928 89.0632 25.04 89.2712 24.24C89.4952 23.424 89.8072 22.728 90.2072 22.152C90.6072 21.576 91.0952 21.136 91.6712 20.832C92.2632 20.512 92.9272 20.352 93.6632 20.352C94.3992 20.352 95.0552 20.512 95.6312 20.832C96.2072 21.136 96.6952 21.576 97.0952 22.152C97.5112 22.728 97.8232 23.424 98.0312 24.24C98.2552 25.04 98.3672 25.928 98.3672 26.904ZM95.6792 26.88C95.6792 26.288 95.6392 25.744 95.5592 25.248C95.4792 24.736 95.3512 24.296 95.1752 23.928C95.0152 23.544 94.8072 23.248 94.5512 23.04C94.3112 22.816 94.0152 22.704 93.6632 22.704C93.3112 22.704 93.0072 22.816 92.7512 23.04C92.5112 23.248 92.3112 23.544 92.1512 23.928C91.9912 24.296 91.8712 24.736 91.7912 25.248C91.7112 25.744 91.6712 26.288 91.6712 26.88C91.6712 27.456 91.7112 28 91.7912 28.512C91.8712 29.024 91.9912 29.464 92.1512 29.832C92.3112 30.2 92.5112 30.496 92.7512 30.72C93.0072 30.928 93.3112 31.032 93.6632 31.032C94.0152 31.032 94.3192 30.928 94.5752 30.72C94.8312 30.496 95.0392 30.2 95.1992 29.832C95.3592 29.464 95.4792 29.024 95.5592 28.512C95.6392 28 95.6792 27.456 95.6792 26.88ZM110.53 33H107.626L105.874 24.624H105.85L104.098 33H101.266L98.6498 20.76H101.434L102.922 29.76H102.97L104.722 20.76H107.122L108.922 29.76H108.97L110.482 20.76H113.194L110.53 33ZM116.932 20.76V22.704H116.98C117.204 22.048 117.572 21.496 118.084 21.048C118.612 20.584 119.26 20.352 120.028 20.352C120.7 20.352 121.236 20.496 121.636 20.784C122.052 21.056 122.372 21.424 122.596 21.888C122.82 22.352 122.972 22.888 123.052 23.496C123.132 24.088 123.172 24.696 123.172 25.32V33H120.46V25.32C120.46 25.016 120.444 24.712 120.412 24.408C120.38 24.088 120.308 23.8 120.196 23.544C120.1 23.288 119.948 23.088 119.74 22.944C119.548 22.784 119.292 22.704 118.972 22.704C118.364 22.704 117.876 23.008 117.508 23.616C117.156 24.224 116.98 24.992 116.98 25.92V33H114.268V20.76H116.932ZM125.377 33V14.856H128.113V33H125.377ZM139.105 26.904C139.105 27.864 138.993 28.744 138.769 29.544C138.561 30.344 138.249 31.032 137.833 31.608C137.433 32.168 136.945 32.608 136.369 32.928C135.793 33.248 135.137 33.408 134.401 33.408C133.665 33.408 133.009 33.248 132.433 32.928C131.857 32.608 131.361 32.168 130.945 31.608C130.545 31.032 130.233 30.344 130.009 29.544C129.801 28.744 129.697 27.864 129.697 26.904C129.697 25.928 129.801 25.04 130.009 24.24C130.233 23.424 130.545 22.728 130.945 22.152C131.345 21.576 131.833 21.136 132.409 20.832C133.001 20.512 133.665 20.352 134.401 20.352C135.137 20.352 135.793 20.512 136.369 20.832C136.945 21.136 137.433 21.576 137.833 22.152C138.249 22.728 138.561 23.424 138.769 24.24C138.993 25.04 139.105 25.928 139.105 26.904ZM136.417 26.88C136.417 26.288 136.377 25.744 136.297 25.248C136.217 24.736 136.089 24.296 135.913 23.928C135.753 23.544 135.545 23.248 135.289 23.04C135.049 22.816 134.753 22.704 134.401 22.704C134.049 22.704 133.745 22.816 133.489 23.04C133.249 23.248 133.049 23.544 132.889 23.928C132.729 24.296 132.609 24.736 132.529 25.248C132.449 25.744 132.409 26.288 132.409 26.88C132.409 27.456 132.449 28 132.529 28.512C132.609 29.024 132.729 29.464 132.889 29.832C133.049 30.2 133.249 30.496 133.489 30.72C133.745 30.928 134.049 31.032 134.401 31.032C134.753 31.032 135.057 30.928 135.313 30.72C135.569 30.496 135.777 30.2 135.937 29.832C136.097 29.464 136.217 29.024 136.297 28.512C136.377 28 136.417 27.456 136.417 26.88ZM145.652 27.264H144.86C144.524 27.264 144.196 27.296 143.876 27.36C143.572 27.408 143.3 27.512 143.06 27.672C142.82 27.832 142.628 28.056 142.484 28.344C142.34 28.616 142.268 28.968 142.268 29.4C142.268 30.04 142.404 30.512 142.676 30.816C142.964 31.12 143.292 31.272 143.66 31.272C144.028 31.272 144.34 31.168 144.596 30.96C144.852 30.752 145.052 30.488 145.196 30.168C145.356 29.848 145.468 29.496 145.532 29.112C145.612 28.712 145.652 28.328 145.652 27.96V27.264ZM145.748 31.176C145.572 31.848 145.252 32.376 144.788 32.76C144.324 33.128 143.708 33.312 142.94 33.312C142.588 33.312 142.228 33.248 141.86 33.12C141.492 32.992 141.156 32.784 140.852 32.496C140.564 32.192 140.324 31.808 140.132 31.344C139.94 30.864 139.844 30.288 139.844 29.616C139.844 28.752 139.996 28.048 140.3 27.504C140.62 26.944 141.02 26.504 141.5 26.184C141.996 25.864 142.54 25.648 143.132 25.536C143.74 25.408 144.332 25.344 144.908 25.344H145.58V24.96C145.58 24.144 145.412 23.56 145.076 23.208C144.756 22.84 144.324 22.656 143.78 22.656C143.316 22.656 142.892 22.768 142.508 22.992C142.14 23.2 141.82 23.48 141.548 23.832L140.252 22.128C140.7 21.568 141.268 21.136 141.956 20.832C142.644 20.512 143.324 20.352 143.996 20.352C144.748 20.352 145.38 20.472 145.892 20.712C146.42 20.952 146.844 21.304 147.164 21.768C147.484 22.216 147.708 22.776 147.836 23.448C147.98 24.12 148.052 24.88 148.052 25.728V33H145.796V31.176H145.748ZM156.178 33V31.248H156.13C155.954 31.856 155.65 32.368 155.218 32.784C154.802 33.2 154.194 33.408 153.394 33.408C152.77 33.408 152.21 33.24 151.714 32.904C151.218 32.568 150.802 32.104 150.466 31.512C150.13 30.904 149.874 30.2 149.698 29.4C149.522 28.584 149.434 27.704 149.434 26.76C149.434 25.832 149.514 24.976 149.674 24.192C149.85 23.408 150.106 22.736 150.442 22.176C150.778 21.6 151.186 21.152 151.666 20.832C152.162 20.512 152.738 20.352 153.394 20.352C154.066 20.352 154.634 20.544 155.098 20.928C155.562 21.296 155.882 21.76 156.058 22.32H156.13V14.856H158.794V33H156.178ZM156.226 26.88C156.226 26.288 156.178 25.744 156.082 25.248C156.002 24.736 155.874 24.296 155.698 23.928C155.538 23.544 155.322 23.248 155.05 23.04C154.794 22.816 154.498 22.704 154.162 22.704C153.81 22.704 153.506 22.816 153.25 23.04C152.994 23.248 152.786 23.544 152.626 23.928C152.466 24.296 152.346 24.736 152.266 25.248C152.186 25.744 152.146 26.288 152.146 26.88C152.146 27.456 152.186 28 152.266 28.512C152.346 29.008 152.466 29.448 152.626 29.832C152.786 30.2 152.994 30.496 153.25 30.72C153.506 30.928 153.81 31.032 154.162 31.032C154.514 31.032 154.818 30.928 155.074 30.72C155.33 30.496 155.538 30.2 155.698 29.832C155.874 29.448 156.002 29.008 156.082 28.512C156.178 28 156.226 27.456 156.226 26.88ZM169.915 33H166.675L163.435 20.76H166.291L168.355 30.144H168.403L170.395 20.76H173.155L169.915 33ZM182.751 26.904C182.751 27.864 182.639 28.744 182.415 29.544C182.207 30.344 181.895 31.032 181.479 31.608C181.079 32.168 180.591 32.608 180.015 32.928C179.439 33.248 178.783 33.408 178.047 33.408C177.311 33.408 176.655 33.248 176.079 32.928C175.503 32.608 175.007 32.168 174.591 31.608C174.191 31.032 173.879 30.344 173.655 29.544C173.447 28.744 173.343 27.864 173.343 26.904C173.343 25.928 173.447 25.04 173.655 24.24C173.879 23.424 174.191 22.728 174.591 22.152C174.991 21.576 175.479 21.136 176.055 20.832C176.647 20.512 177.311 20.352 178.047 20.352C178.783 20.352 179.439 20.512 180.015 20.832C180.591 21.136 181.079 21.576 181.479 22.152C181.895 22.728 182.207 23.424 182.415 24.24C182.639 25.04 182.751 25.928 182.751 26.904ZM180.063 26.88C180.063 26.288 180.023 25.744 179.943 25.248C179.863 24.736 179.735 24.296 179.559 23.928C179.399 23.544 179.191 23.248 178.935 23.04C178.695 22.816 178.399 22.704 178.047 22.704C177.695 22.704 177.391 22.816 177.135 23.04C176.895 23.248 176.695 23.544 176.535 23.928C176.375 24.296 176.255 24.736 176.175 25.248C176.095 25.744 176.055 26.288 176.055 26.88C176.055 27.456 176.095 28 176.175 28.512C176.255 29.024 176.375 29.464 176.535 29.832C176.695 30.2 176.895 30.496 177.135 30.72C177.391 30.928 177.695 31.032 178.047 31.032C178.399 31.032 178.703 30.928 178.959 30.72C179.215 30.496 179.423 30.2 179.583 29.832C179.743 29.464 179.863 29.024 179.943 28.512C180.023 28 180.063 27.456 180.063 26.88ZM193.017 26.904C193.017 27.864 192.905 28.744 192.681 29.544C192.473 30.344 192.161 31.032 191.745 31.608C191.345 32.168 190.857 32.608 190.281 32.928C189.705 33.248 189.049 33.408 188.313 33.408C187.577 33.408 186.921 33.248 186.345 32.928C185.769 32.608 185.273 32.168 184.857 31.608C184.457 31.032 184.145 30.344 183.921 29.544C183.713 28.744 183.609 27.864 183.609 26.904C183.609 25.928 183.713 25.04 183.921 24.24C184.145 23.424 184.457 22.728 184.857 22.152C185.257 21.576 185.745 21.136 186.321 20.832C186.913 20.512 187.577 20.352 188.313 20.352C189.049 20.352 189.705 20.512 190.281 20.832C190.857 21.136 191.345 21.576 191.745 22.152C192.161 22.728 192.473 23.424 192.681 24.24C192.905 25.04 193.017 25.928 193.017 26.904ZM190.329 26.88C190.329 26.288 190.289 25.744 190.209 25.248C190.129 24.736 190.001 24.296 189.825 23.928C189.665 23.544 189.457 23.248 189.201 23.04C188.961 22.816 188.665 22.704 188.313 22.704C187.961 22.704 187.657 22.816 187.401 23.04C187.161 23.248 186.961 23.544 186.801 23.928C186.641 24.296 186.521 24.736 186.441 25.248C186.361 25.744 186.321 26.288 186.321 26.88C186.321 27.456 186.361 28 186.441 28.512C186.521 29.024 186.641 29.464 186.801 29.832C186.961 30.2 187.161 30.496 187.401 30.72C187.657 30.928 187.961 31.032 188.313 31.032C188.665 31.032 188.969 30.928 189.225 30.72C189.481 30.496 189.689 30.2 189.849 29.832C190.009 29.464 190.129 29.024 190.209 28.512C190.289 28 190.329 27.456 190.329 26.88ZM197.356 23.112C197.564 22.2 197.892 21.512 198.34 21.048C198.788 20.584 199.316 20.352 199.924 20.352C200.004 20.352 200.068 20.352 200.116 20.352C200.18 20.352 200.252 20.368 200.332 20.4L200.188 23.184C200.012 23.136 199.82 23.112 199.612 23.112C199.26 23.112 198.948 23.224 198.676 23.448C198.404 23.656 198.172 23.936 197.98 24.288C197.788 24.64 197.644 25.04 197.548 25.488C197.452 25.936 197.404 26.392 197.404 26.856V33H194.644V20.76H197.308V23.112H197.356ZM204.819 33V16.008H207.699V33H204.819ZM221.683 24.48C221.683 25.824 221.539 27.048 221.251 28.152C220.979 29.24 220.579 30.176 220.051 30.96C219.523 31.744 218.875 32.352 218.107 32.784C217.355 33.216 216.507 33.432 215.563 33.432C214.603 33.432 213.747 33.216 212.995 32.784C212.243 32.352 211.603 31.744 211.075 30.96C210.547 30.176 210.139 29.24 209.851 28.152C209.579 27.048 209.443 25.824 209.443 24.48C209.443 23.136 209.579 21.92 209.851 20.832C210.123 19.744 210.523 18.808 211.051 18.024C211.579 17.24 212.219 16.64 212.971 16.224C213.739 15.792 214.603 15.576 215.563 15.576C216.507 15.576 217.355 15.792 218.107 16.224C218.875 16.64 219.523 17.24 220.051 18.024C220.579 18.808 220.979 19.744 221.251 20.832C221.539 21.92 221.683 23.136 221.683 24.48ZM218.707 24.48C218.707 23.616 218.635 22.808 218.491 22.056C218.363 21.288 218.163 20.632 217.891 20.088C217.635 19.528 217.307 19.088 216.907 18.768C216.523 18.448 216.075 18.288 215.563 18.288C215.035 18.288 214.571 18.448 214.171 18.768C213.787 19.088 213.459 19.528 213.187 20.088C212.931 20.632 212.739 21.288 212.611 22.056C212.483 22.808 212.419 23.616 212.419 24.48C212.419 25.344 212.483 26.16 212.611 26.928C212.739 27.68 212.931 28.336 213.187 28.896C213.459 29.456 213.787 29.896 214.171 30.216C214.571 30.536 215.035 30.696 215.563 30.696C216.091 30.696 216.547 30.536 216.931 30.216C217.331 29.896 217.659 29.456 217.915 28.896C218.187 28.336 218.387 27.68 218.515 26.928C218.643 26.16 218.707 25.344 218.707 24.48ZM230.078 19.296C229.454 18.544 228.67 18.168 227.726 18.168C227.454 18.168 227.19 18.216 226.934 18.312C226.678 18.392 226.446 18.528 226.238 18.72C226.03 18.912 225.862 19.16 225.734 19.464C225.622 19.768 225.566 20.128 225.566 20.544C225.566 21.264 225.782 21.824 226.214 22.224C226.646 22.608 227.214 22.976 227.918 23.328C228.334 23.536 228.758 23.776 229.19 24.048C229.622 24.32 230.014 24.648 230.366 25.032C230.718 25.416 231.006 25.872 231.23 26.4C231.454 26.928 231.566 27.552 231.566 28.272C231.566 29.104 231.43 29.84 231.158 30.48C230.902 31.12 230.55 31.664 230.102 32.112C229.67 32.544 229.158 32.872 228.566 33.096C227.974 33.32 227.35 33.432 226.694 33.432C225.75 33.432 224.878 33.248 224.078 32.88C223.278 32.512 222.638 32.048 222.158 31.488L223.718 29.376C224.086 29.824 224.526 30.176 225.038 30.432C225.566 30.688 226.102 30.816 226.646 30.816C227.254 30.816 227.758 30.608 228.158 30.192C228.558 29.776 228.758 29.192 228.758 28.44C228.758 27.704 228.518 27.12 228.038 26.688C227.558 26.256 226.95 25.856 226.214 25.488C225.75 25.264 225.31 25.016 224.894 24.744C224.494 24.472 224.134 24.152 223.814 23.784C223.51 23.4 223.262 22.96 223.07 22.464C222.894 21.952 222.806 21.344 222.806 20.64C222.806 19.76 222.942 19.008 223.214 18.384C223.502 17.744 223.87 17.216 224.318 16.8C224.782 16.384 225.302 16.08 225.878 15.888C226.454 15.68 227.038 15.576 227.63 15.576C228.494 15.576 229.262 15.72 229.934 16.008C230.622 16.28 231.198 16.688 231.662 17.232L230.078 19.296ZM84.5831 59L83.6231 55.016H78.7031L77.7191 59H75.5351L79.8071 42.008H82.6631L86.8391 59H84.5831ZM81.2471 44.024H81.1511L78.9911 53.312H83.3351L81.2471 44.024ZM89.8225 46.952V48.824H89.8705C90.0625 48.168 90.3665 47.624 90.7825 47.192C91.2145 46.76 91.8465 46.544 92.6785 46.544C93.2865 46.544 93.8305 46.712 94.3105 47.048C94.7905 47.368 95.1905 47.816 95.5105 48.392C95.8465 48.968 96.0945 49.656 96.2545 50.456C96.4305 51.24 96.5185 52.096 96.5185 53.024C96.5185 53.952 96.4385 54.808 96.2785 55.592C96.1185 56.376 95.8705 57.048 95.5345 57.608C95.2145 58.168 94.8145 58.608 94.3345 58.928C93.8545 59.248 93.3025 59.408 92.6785 59.408C91.9745 59.408 91.3825 59.208 90.9025 58.808C90.4225 58.392 90.0945 57.872 89.9185 57.248H89.8705V64.76H87.8305V46.952H89.8225ZM89.8225 52.952C89.8225 53.608 89.8705 54.224 89.9665 54.8C90.0625 55.36 90.2065 55.848 90.3985 56.264C90.6065 56.68 90.8545 57.008 91.1425 57.248C91.4305 57.488 91.7665 57.608 92.1505 57.608C92.5505 57.608 92.8865 57.488 93.1585 57.248C93.4465 57.008 93.6785 56.68 93.8545 56.264C94.0465 55.848 94.1825 55.36 94.2625 54.8C94.3585 54.224 94.4065 53.608 94.4065 52.952C94.4065 52.312 94.3585 51.712 94.2625 51.152C94.1825 50.576 94.0465 50.08 93.8545 49.664C93.6785 49.248 93.4465 48.92 93.1585 48.68C92.8865 48.44 92.5505 48.32 92.1505 48.32C91.7665 48.32 91.4225 48.44 91.1185 48.68C90.8305 48.92 90.5905 49.248 90.3985 49.664C90.2065 50.08 90.0625 50.576 89.9665 51.152C89.8705 51.712 89.8225 52.312 89.8225 52.952ZM100.394 46.952V48.824H100.442C100.634 48.168 100.938 47.624 101.354 47.192C101.786 46.76 102.418 46.544 103.25 46.544C103.858 46.544 104.402 46.712 104.882 47.048C105.362 47.368 105.762 47.816 106.082 48.392C106.418 48.968 106.666 49.656 106.826 50.456C107.002 51.24 107.09 52.096 107.09 53.024C107.09 53.952 107.01 54.808 106.85 55.592C106.69 56.376 106.442 57.048 106.106 57.608C105.786 58.168 105.386 58.608 104.906 58.928C104.426 59.248 103.874 59.408 103.25 59.408C102.546 59.408 101.954 59.208 101.474 58.808C100.994 58.392 100.666 57.872 100.49 57.248H100.442V64.76H98.4017V46.952H100.394ZM100.394 52.952C100.394 53.608 100.442 54.224 100.538 54.8C100.634 55.36 100.778 55.848 100.97 56.264C101.178 56.68 101.426 57.008 101.714 57.248C102.002 57.488 102.338 57.608 102.722 57.608C103.122 57.608 103.458 57.488 103.73 57.248C104.018 57.008 104.25 56.68 104.426 56.264C104.618 55.848 104.754 55.36 104.834 54.8C104.93 54.224 104.978 53.608 104.978 52.952C104.978 52.312 104.93 51.712 104.834 51.152C104.754 50.576 104.618 50.08 104.426 49.664C104.25 49.248 104.018 48.92 103.73 48.68C103.458 48.44 103.122 48.32 102.722 48.32C102.338 48.32 101.994 48.44 101.69 48.68C101.402 48.92 101.162 49.248 100.97 49.664C100.778 50.08 100.634 50.576 100.538 51.152C100.442 51.712 100.394 52.312 100.394 52.952ZM120.383 54.488C120.383 55.256 120.263 55.952 120.023 56.576C119.783 57.184 119.455 57.696 119.039 58.112C118.639 58.528 118.159 58.848 117.599 59.072C117.039 59.296 116.439 59.408 115.799 59.408C114.935 59.408 114.111 59.232 113.327 58.88C112.559 58.512 111.943 58.032 111.479 57.44L112.751 55.88C113.119 56.36 113.575 56.736 114.119 57.008C114.679 57.28 115.239 57.416 115.799 57.416C116.519 57.416 117.111 57.176 117.575 56.696C118.039 56.216 118.271 55.52 118.271 54.608C118.271 54.176 118.199 53.8 118.055 53.48C117.911 53.144 117.711 52.848 117.455 52.592C117.199 52.32 116.903 52.08 116.567 51.872C116.247 51.648 115.895 51.44 115.511 51.248C115.047 51.024 114.607 50.776 114.191 50.504C113.791 50.216 113.431 49.888 113.111 49.52C112.791 49.152 112.535 48.72 112.343 48.224C112.167 47.712 112.079 47.112 112.079 46.424C112.079 45.608 112.207 44.896 112.463 44.288C112.719 43.68 113.055 43.176 113.471 42.776C113.903 42.376 114.391 42.08 114.935 41.888C115.479 41.696 116.031 41.6 116.591 41.6C117.407 41.6 118.135 41.736 118.775 42.008C119.431 42.28 119.975 42.688 120.407 43.232L119.111 44.768C118.503 43.968 117.687 43.568 116.663 43.568C116.359 43.568 116.055 43.624 115.751 43.736C115.463 43.832 115.199 44 114.959 44.24C114.719 44.464 114.527 44.752 114.383 45.104C114.239 45.456 114.167 45.88 114.167 46.376C114.167 46.808 114.231 47.184 114.359 47.504C114.503 47.808 114.687 48.088 114.911 48.344C115.151 48.584 115.423 48.808 115.727 49.016C116.031 49.208 116.359 49.392 116.711 49.568C117.159 49.792 117.599 50.048 118.031 50.336C118.463 50.608 118.855 50.936 119.207 51.32C119.559 51.704 119.839 52.16 120.047 52.688C120.271 53.2 120.383 53.8 120.383 54.488ZM126.349 58.976C126.173 59.072 125.941 59.152 125.653 59.216C125.365 59.28 125.077 59.312 124.789 59.312C123.861 59.312 123.197 59.016 122.797 58.424C122.413 57.832 122.221 57.008 122.221 55.952V48.608H120.685V46.952H122.197V43.736H124.189V46.952H126.325V48.608H124.189V55.544C124.189 56.248 124.293 56.76 124.501 57.08C124.709 57.384 125.021 57.536 125.437 57.536C125.581 57.536 125.733 57.52 125.893 57.488C126.053 57.44 126.189 57.392 126.301 57.344L126.349 58.976ZM135.509 53C135.509 53.96 135.405 54.832 135.197 55.616C135.005 56.4 134.717 57.072 134.333 57.632C133.965 58.192 133.509 58.632 132.965 58.952C132.421 59.256 131.805 59.408 131.117 59.408C130.445 59.408 129.837 59.256 129.293 58.952C128.749 58.632 128.285 58.192 127.901 57.632C127.533 57.072 127.245 56.4 127.037 55.616C126.845 54.832 126.749 53.96 126.749 53C126.749 52.04 126.845 51.16 127.037 50.36C127.245 49.56 127.533 48.88 127.901 48.32C128.269 47.76 128.725 47.328 129.269 47.024C129.813 46.704 130.429 46.544 131.117 46.544C131.805 46.544 132.421 46.704 132.965 47.024C133.509 47.328 133.965 47.76 134.333 48.32C134.717 48.88 135.005 49.56 135.197 50.36C135.405 51.16 135.509 52.04 135.509 53ZM133.397 52.976C133.397 52.32 133.349 51.712 133.253 51.152C133.173 50.576 133.037 50.08 132.845 49.664C132.653 49.248 132.413 48.92 132.125 48.68C131.837 48.44 131.501 48.32 131.117 48.32C130.733 48.32 130.397 48.44 130.109 48.68C129.821 48.92 129.581 49.248 129.389 49.664C129.213 50.08 129.077 50.576 128.981 51.152C128.901 51.712 128.861 52.32 128.861 52.976C128.861 53.632 128.901 54.24 128.981 54.8C129.077 55.36 129.213 55.848 129.389 56.264C129.581 56.68 129.821 57.008 130.109 57.248C130.397 57.488 130.733 57.608 131.117 57.608C131.517 57.608 131.861 57.488 132.149 57.248C132.437 57.008 132.669 56.68 132.845 56.264C133.037 55.848 133.173 55.36 133.253 54.8C133.349 54.24 133.397 53.632 133.397 52.976ZM139.471 49.448C139.679 48.44 140.015 47.704 140.479 47.24C140.943 46.776 141.479 46.544 142.087 46.544C142.215 46.544 142.311 46.552 142.375 46.568L142.279 48.704C142.215 48.688 142.151 48.68 142.087 48.68C142.023 48.664 141.951 48.656 141.871 48.656C141.487 48.656 141.143 48.784 140.839 49.04C140.551 49.28 140.303 49.6 140.095 50C139.903 50.4 139.751 50.856 139.639 51.368C139.543 51.864 139.495 52.376 139.495 52.904V59H137.431V50C137.431 49.52 137.423 49.008 137.407 48.464C137.391 47.904 137.367 47.4 137.335 46.952H139.279C139.327 47.352 139.359 47.768 139.375 48.2C139.407 48.632 139.423 49.048 139.423 49.448H139.471ZM144.518 53.504C144.518 54.08 144.566 54.616 144.662 55.112C144.774 55.608 144.926 56.04 145.118 56.408C145.326 56.776 145.582 57.064 145.886 57.272C146.19 57.48 146.542 57.584 146.942 57.584C147.486 57.584 147.918 57.416 148.238 57.08C148.558 56.744 148.814 56.344 149.006 55.88L150.542 56.768C150.222 57.536 149.758 58.168 149.15 58.664C148.558 59.16 147.798 59.408 146.87 59.408C145.494 59.408 144.414 58.848 143.63 57.728C142.846 56.592 142.454 55.016 142.454 53C142.454 52.04 142.558 51.168 142.766 50.384C142.974 49.584 143.27 48.904 143.654 48.344C144.038 47.768 144.502 47.328 145.046 47.024C145.59 46.704 146.19 46.544 146.846 46.544C147.582 46.544 148.206 46.704 148.718 47.024C149.23 47.328 149.646 47.752 149.966 48.296C150.302 48.824 150.542 49.456 150.686 50.192C150.83 50.912 150.902 51.688 150.902 52.52V53.504H144.518ZM148.838 51.848C148.838 50.792 148.67 49.944 148.334 49.304C148.014 48.648 147.502 48.32 146.798 48.32C146.382 48.32 146.03 48.448 145.742 48.704C145.47 48.944 145.246 49.248 145.07 49.616C144.894 49.968 144.766 50.352 144.686 50.768C144.606 51.168 144.566 51.528 144.566 51.848H148.838Z" fill="black"/>
<rect x="1" y="1" width="277" height="74" rx="5" stroke="#006CAD" stroke-width="2"/>
</svg>
