<?xml version="1.0" encoding="UTF-8"?>
<svg xmlns="http://www.w3.org/2000/svg" version="1.1" viewBox="0 0 122.2 59">
  <!-- Generator: Adobe Illustrator 29.2.1, SVG Export Plug-In . SVG Version: 2.1.0 Build 116)  -->
  <defs>
    <style>
      .st0, .st1, .st2, .st3, .st4, .st5 {
        fill: #006cad;
      }

      .st6 {
        stroke-miterlimit: 10;
        stroke-width: .5px;
      }

      .st6, .st7, .st8, .st9 {
        fill: #fff;
      }

      .st6, .st7, .st8, .st5 {
        stroke: #006cad;
      }

      .st7 {
        stroke-width: .5px;
      }

      .st7, .st1, .st8, .st2, .st5 {
        stroke-miterlimit: 10;
      }

      .st1, .st8 {
        stroke-width: .2px;
      }

      .st1, .st2 {
        stroke: #fff;
      }

      .st10 {
        fill: #eabb8d;
      }

      .st11 {
        fill: #e6e6e6;
      }

      .st12 {
        fill: #d0efff;
      }

      .st13 {
        fill: #c59e7f;
      }

      .st14 {
        fill: #fffc97;
      }

      .st15 {
        fill: #8cc63f;
      }

      .st16 {
        fill: #f1641c;
      }

      .st17 {
        fill: #e9c18a;
      }

      .st18, .st4 {
        isolation: isolate;
      }

      .st19 {
        fill: #d8ad82;
      }

      .st20 {
        fill: #cea780;
      }

      .st21 {
        fill: #cae9ff;
      }

      .st22 {
        fill: #da8c4a;
      }

      .st23 {
        fill: #d3f0ff;
      }

      .st3 {
        font-family: AvenirNextCondensed-Heavy, 'Avenir Next Condensed';
        font-size: 10.9px;
        font-weight: 800;
        letter-spacing: 0em;
      }

      .st3, .st24 {
        display: none;
      }

      .st25 {
        fill: #d4f0ff;
      }

      .st26 {
        fill: #f2f2f2;
      }

      .st27 {
        fill: #e35a16;
      }

      .st28 {
        fill: #e2b687;
      }

      .st29 {
        fill: #fde051;
      }

      .st30 {
        fill: #d8f3ff;
      }

      .st4 {
        font-family: AvenirNextCondensed-Bold, 'Avenir Next Condensed';
        font-size: 14px;
        font-weight: 700;
      }

      .st5 {
        stroke-width: .1px;
      }
    </style>
  </defs>
  <g id="Layer_2">
    <g id="Layer_2-2">
      <g>
        <path class="st9" d="M34.9,15.9c-.8-.3-1.5-.6-2.3-.9.5-.6.9-1.2,1.4-1.8.3.9.6,1.8.9,2.7h0Z"/>
        <path class="st9" d="M31.7,15.9c.3-.3.6-.6.9-.9.8.3,1.5.6,2.3.9h-3.2Z"/>
        <g id="achterhendel">
          <g>
            <path class="st1" d="M16.9,15.5c-.8,0-1.6,0-2.4-.1v-6h2.4v6.2h0Z"/>
            <path class="st1" d="M14.5,9.4h2.4v-1.7c-.8.6-1.6,1.2-2.4,1.7Z"/>
          </g>
          <g>
            <path class="st1" d="M28.5,16.3c.8,0,1.6,0,2.4.1v-5.5h-2.4v5.4h0Z"/>
            <path class="st1" d="M30.9,10.9h-2.4v-2.3c.8.8,1.6,1.5,2.4,2.3h0Z"/>
          </g>
          <path class="st1" d="M28.5,10.8c-3.9-.2-7.8-.4-11.6-.7v-2.5c3.9.3,7.7.6,11.6.9v2.2h0Z"/>
        </g>
        <g id="achterkant_tas">
          <path class="st2" d="M9.9,21.3h25.4c.7-1.5,1.5-3,2.2-4.5-9.3-.6-18.6-1.2-27.9-1.8.1,2.1.2,4.1.3,6.2h0Z"/>
          <rect class="st2" x="7.7" y="16.2" width=".5" height="1"/>
          <path class="st2" d="M9.1,21.7H.5v-4.6c4.3-.5,5.8-.5,6.3-.4h.6c.4,0,.7-.1.9-.2.3,1.7.6,3.5.8,5.2Z"/>
          <path class="st2" d="M7.6,19.9h2.2c0-1.6-.2-3.2-.2-4.8-.4.2-.8.4-1,.5-.2,0-.5.1-.7.4,0,0-.2.2-.2.3.2,0,.4,0,.5.2v.5c-.2.3-.3,1.1-.5,2.9h-.1Z"/>
        </g>
        <g id="eten_in_tas">
          <ellipse class="st6" cx="9.9" cy="21.7" rx="6.5" ry="15.8" transform="translate(-6 4) rotate(-17.4)"/>
          <path class="st7" d="M12.3,13.3c-.2.6-2.3.5-3.6.4-1.2,0-3.6-.3-3.7-1,0-.7,2-1.9,4.1-1.7,1.8.2,3.4,1.6,3.2,2.3h0Z"/>
          <path class="st7" d="M14.3,18.1c-.2.7-2.5.7-3.9.7s-3.9,0-4.1-.7,2-2.2,4.3-2.1c2,0,3.9,1.4,3.7,2.1Z"/>
          <path class="st7" d="M16.3,24c-.2.8-3,.7-4.6.6-1.5,0-4.6-.2-4.7-1.1s2.5-2.5,5.1-2.3c2.3.2,4.4,2,4.2,2.8h0Z"/>
          <path class="st7" d="M17,29.8c-.2.7-2.6.5-3.9.4-1.3-.1-3.9-.3-4-1s2.2-2.1,4.4-1.8c2,.2,3.7,1.8,3.5,2.4h0Z"/>
          <g id="wortel">
            <g id="doorzichtig_blaadjes">
              <path class="st7" d="M22.9,4.6c1.6-.9,3.1-1,3.9-1.1,2.7-.2,4.8.7,5.8,1.2-.4.3-1.2.8-2,1.5-3.5,3-3.1,5.4-5.7,6.5-2.5,1.1-3.9,1.2-3.9,1.2-.3,0-.9,0-1.4.4-.7.4-1,1.2-1.2,1.8,0-.6,0-1.5.4-2.4.5-1.3,1.4-2,2.6-3.1,1-.8,2.3-2.1,3.9-3.7,1.1-.9,1.9-1.3,2.5-1.6.2,0,.5-.2.5-.2,0,0-1,0-1.8.2-1.4.3-2.4,1-3.4,1.8-.5.4-1.2.9-2,1.7-.5.5-1.1,1.3-1.6,2.4-1.2,2.5-1,4.9-1.1,4.9,0,0-.4-2.2.3-5,.4-1.7,1.2-5,4.1-6.6h.1Z"/>
              <path class="st7" d="M9.7.5c.9.2,2.4.5,4.1,1.6.7.5,2.2,1.5,3.2,3.4.1.3,1.2,2.4,1,5,0,.4-.1.8-.2,1.4,0,.5-.1.9-.1,1-.2,1.7.5,3.6.4,3.7,0,0-.5-.8-.9-2-.4-1.3-.4-2-.7-3.3-.1-.7-.4-1.7-.9-2.9h0c-.6-1.4-1.6-3.3-3.4-4.9-.4-.4-.8-.7-1.2-1-.2,0-.4-.2-.4,0,0,0,.3.4.4.4.8.7,1.7,2.4,2.3,3.6.6,1.3.4,1.6,1.1,3.5,0,.1.4.9.8,1.6.3.6.7,1.2.8,1.2h0c.6.9.8,1.1,1.3,1.8.6.9,1.1,1.9.9,2s-.9-1.5-2.8-2.4c-1-.5-1.4-.3-2.6-1,0,0-.9-.5-1.6-1.2-1.7-1.7-2-4.2-2.1-6.3-.1-1.3,0-2.2-.6-3.5-.4-.9-.8-1.5-1.2-2,.6,0,1.5,0,2.5.3h0Z"/>
            </g>
            <g>
              <g id="wortel-2">
                <path class="st7" d="M23.2,25.2c.8,6.3,1.1,9.5.5,9.7-1,.4-3.1-3.9-5-7.7-1.6-3.4-4.3-8.8-2.9-10.4.5-.5,1.6-.8,2.6-1,.9-.2,1.4-.3,1.9-.2,1.5.4,2.1,3.3,2.9,9.6h0Z"/>
              </g>
              <path class="st5" d="M19.6,17c.6-.1,1.1-.3,1.4-.5.1,0,.2-.1.3-.1h0c0-.1-.1-.2-.2-.3l-.2.2c-.4.3-.8.4-1.4.5-.8.2-1.2.4-1.2.4,0,0,.9,0,1.4-.2h0Z"/>
              <path class="st5" d="M20.2,18.1c.5-.1.9-.2,1.4-.5.1,0,.2-.1.3-.2h0v-.3s-.2.1-.3.2c-.4.3-.8.4-1.4.5-.8.2-1.2.4-1.2.4,0,0,.9,0,1.4-.2h-.2Z"/>
              <path class="st5" d="M16.5,18.2c-.2,0-.4.1-.6.2h-.4v-.2c.7-.2,1.2-.3,1.6-.4.3,0,.4-.1.4,0,0,0-.6.3-1,.4h0Z"/>
              <path class="st5" d="M16.1,18.7c-.2,0-.3.1-.4.1h-.3v-.2c.4,0,.8-.1,1-.2h.3s-.4.2-.6.3Z"/>
            </g>
          </g>
          <g id="melk">
            <g>
              <path class="st7" d="M35,15.8c-.3-1-.6-1.9-.9-2.9"/>
              <path class="st7" d="M32.7,14.8c.8.4,1.6.7,2.4,1.1"/>
              <path class="st7" d="M34,13.4c-.8.9-1.6,1.9-2.3,2.8-2.8-.6-5.6-1.3-8.5-1.9.1-.2.3-.4.4-.6.6-.8,1.1-1.5,1.7-2.1,2.9.6,8.7,1.8,8.7,1.8h0Z"/>
              <path class="st7" d="M34.1,13.3c-2.9-.6-5.9-1.2-8.8-1.8v-1.4s0-.1.2-.2c.2-.1.5-.2.7-.1.5,0,3.3.6,7.2,1.4,0,0,.5,0,.6.3,0,.1,0,.3,0,.7,0,.3,0,.7,0,1.1h.2Z"/>
              <path class="st7" d="M29.6,30l4.5-2.5c.3-3.8.6-7.6.8-11.4h-3.4c-.6,4.6-1.3,9.2-1.9,13.8h0Z"/>
              <path class="st7" d="M23.7,14.6c2.6.5,5.3,1.1,7.9,1.6-.6,4.6-1.3,9.2-1.9,13.8-2.9-.6-5.9-1.2-8.8-1.8.7-4.6,1.4-9.2,2.1-13.7"/>
              <path class="st7" d="M23,14.4h.7"/>
            </g>
            <g>
              <path class="st8" d="M30.1,13.8c-.1.1-.3.3-.6.4-.4.2-.8.2-1,.2-.3,0-.7,0-1.1-.2-.3-.1-.4-.4-.5-.5v-1.1h3.2v1.2h0Z"/>
              <path class="st8" d="M30.1,12.7c0,.5-1,.8-1.7.8s-1.5-.5-1.5-.9.9-.8,1.6-.8,1.6.5,1.6,1h0Z"/>
            </g>
          </g>
        </g>
        <g id="voorhendel">
          <g>
            <polyline class="st1" points="11.9 11.1 11.8 19.2 9.4 19.2 9.5 11.1"/>
            <path class="st1" d="M11.9,11.2v-2.4l-2.4,2.4"/>
          </g>
          <g>
            <polyline class="st1" points="23.5 11.9 23.4 19.6 25.8 19.7 25.9 11.9"/>
            <path class="st1" d="M23.5,11.9v-2.2c.8.8,1.6,1.5,2.4,2.2"/>
          </g>
          <path class="st1" d="M23.5,11.9l-11.6-.7v-2.5c3.8.3,7.7.6,11.5.9v2.2h.1Z"/>
        </g>
        <g id="voorkant_tas">
          <path class="st1" d="M29.8,58.8c-9.6-1.3-19.3-2.5-28.9-3.8-.1-12.6-.2-25.2-.4-37.9,9.8.8,19.5,1.6,29.3,2.4v39.3h0Z"/>
          <path class="st1" d="M38,53.5c0-2.5,0-4.9-.2-7.4-2.2.6-4.4,1.1-6.6,1.7,2.2,1.9,4.5,3.8,6.7,5.7h.1Z"/>
          <path class="st1" d="M29.8,58.8c2.7-1.8,5.5-3.5,8.2-5.3-2.2-1.9-4.5-3.8-6.7-5.7-.5,3.7-1,7.3-1.4,11h-.1Z"/>
          <path class="st1" d="M37.5,16.8l-7.8,2.7v39.3c2.8-1.8,5.5-3.5,8.3-5.3-.2-12.2-.3-24.5-.5-36.7h0Z"/>
        </g>
      </g>
    </g>
    <g class="st18">
      <text class="st4" transform="translate(40.6 40.7)"><tspan x="0" y="0">Red De Restjes</tspan></text>
    </g>
    <g>
      <path class="st9" d="M5.2,23.7h0s0,1.9,0,1.9l-1.6-.2v-6.3l1.7.2c1.1.1,2.5.5,2.5,2.5s-.4,1.3-1,1.6l1.4,2.5-1.9-.2-1-2.1ZM5.1,20.9v1.5h.2c.5,0,.8-.1.8-.7s-.3-.7-.8-.8h-.2Z"/>
      <path class="st9" d="M3.5,25.3l1.8.2c1.6.2,3,1.1,3,3.4s-1.4,3-2.9,2.8l-1.8-.2v-6.3ZM5.1,30.1h.3c.7.1,1.2-.3,1.2-1.3s-.6-1.5-1.2-1.6h-.3s0,2.9,0,2.9Z"/>
      <path class="st9" d="M5.2,36.1h0s0,1.9,0,1.9l-1.6-.2v-6.3l1.7.2c1.1.1,2.5.5,2.5,2.5s-.4,1.3-1,1.6l1.4,2.5-1.9-.2-1-2.1ZM5.1,33.3v1.5h.2c.5,0,.8-.1.8-.7s-.3-.7-.8-.8h-.2Z"/>
      <path class="st0" d="M29.1,43.8c-.3-.2-.7-.4-1.1-.4s-.5,0-.5.3.3.5.7.9c.9.9,1.2,1.4,1.2,2.2,0,1.2-1,1.7-2.1,1.6-.5,0-1.1-.2-1.4-.4v-1.5c.4.3.8.5,1.3.5s.6,0,.6-.3-.3-.6-.9-1.1c-.9-.9-1.1-1.4-1.1-2.1s.7-1.7,2.1-1.5.9.1,1.3.4v1.5Z"/>
    </g>
  </g>
  <g id="Layer_3" class="st24">
    <g id="donkere_tas">
      <g id="achterhendel1" data-name="achterhendel">
        <g>
          <path class="st13" d="M18.2,15.8c-.8,0-1.5,0-2.3-.1,0-1.9,0-3.9,0-5.8h2.3c0,2,0,4,0,5.9Z"/>
          <path class="st13" d="M15.9,9.9h2.3s0-1.7,0-1.7c-.8.6-1.6,1.1-2.3,1.7Z"/>
        </g>
        <g>
          <path class="st13" d="M29.3,16.6c.8,0,1.5,0,2.3.1,0-1.8,0-3.6,0-5.3h-2.3c0,1.7,0,3.5,0,5.2Z"/>
          <path class="st13" d="M31.7,11.4h-2.3s0-2.2,0-2.2c.8.7,1.5,1.5,2.3,2.2Z"/>
        </g>
        <path class="st19" d="M29.4,11.3c-3.7-.2-7.5-.4-11.2-.7,0-.8,0-1.6,0-2.4,3.7.3,7.4.6,11.1.9,0,.7,0,1.4,0,2.2Z"/>
      </g>
      <g id="achterkant_tas1" data-name="achterkant_tas">
        <path class="st13" d="M11.4,21.4c8.2,0,16.3,0,24.5,0,.7-1.5,1.4-2.9,2.2-4.4-9-.6-18-1.1-26.9-1.7,0,2,.2,4,.3,6Z"/>
        <rect class="st28" x="9.3" y="16.5" width=".5" height="1"/>
        <path class="st13" d="M10.7,21.8H2.3v-4.4c4.1-.4,5.6-.5,6.1-.4,0,0,.3,0,.6,0,.4,0,.7-.1.9-.2.3,1.7.5,3.4.8,5Z"/>
        <path class="st20" d="M9.2,20c.7,0,1.4,0,2.2,0,0-1.5-.2-3.1-.2-4.6-.4.2-.7.4-1,.4-.2,0-.4.1-.6.4-.1.1-.2.2-.2.3.1,0,.4,0,.4.2,0,.2,0,.4,0,.4-.1.3-.3,1.1-.5,2.8Z"/>
      </g>
      <g id="eten_in_tas1" data-name="eten_in_tas">
        <g id="brood">
          <ellipse class="st22" cx="11.3" cy="21.8" rx="6.3" ry="15.2" transform="translate(-6 4.4) rotate(-17.4)"/>
          <path class="st17" d="M13.6,13.7c-.2.6-2.3.5-3.5.4-1.2,0-3.5-.3-3.6-.9,0-.7,2-1.9,3.9-1.6,1.8.2,3.3,1.6,3.1,2.2Z"/>
          <path class="st17" d="M16.2,18.9c-.2.8-2.8.6-4.3.4-1.4-.1-4.3-.3-4.4-1.1-.1-.8,2.4-2.3,4.8-2,2.2.3,4.1,1.9,3.9,2.7Z"/>
          <path class="st17" d="M17.5,24.1c-.2.8-2.9.7-4.4.6-1.5,0-4.4-.2-4.6-1.1-.1-.8,2.4-2.4,4.9-2.2,2.2.2,4.3,1.9,4.1,2.7Z"/>
          <path class="st17" d="M18.2,29.6c-.2.7-2.5.5-3.8.4-1.3,0-3.8-.3-3.9-1,0-.7,2.1-2,4.3-1.8,1.9.2,3.6,1.7,3.4,2.4Z"/>
        </g>
        <g id="doorzichtig_blaadjes1" data-name="doorzichtig_blaadjes" class="st24">
          <path class="st15" d="M24.8,8.5c1.6-.9,3-1,3.8-1,2.6-.2,4.6.7,5.6,1.2-.5.3-1.2.8-1.9,1.4-3.3,2.9-3.2,5.6-5.7,6.6-1.5.6-2.8.2-3.1.1-.2,0-.9-.3-1.5-.7,0,0,0,0,0,0,.1,0,.2-.2.3-.3.1-.2.2-.4.4-.6,1.5-2.5,3.5-3.9,4.4-4.4.7-.4,1.8-1.2,2.7-1.4,0,0,.5-.1.5-.2,0,0-.2,0-.4,0-.3,0-.8.1-1.4.3-1.4.4-2.4,1.1-3.3,1.7,0,0,0,0-1.3,1,0,0-1.8,1.3-2.8,2.6,0,0-.1.2-.1.3,0,0,0,0,0,0,0,0,0,0,0-.1-.9-2.1,1.6-5.1,4-6.4Z"/>
          <path class="st15" d="M12,4.5c.8.2,2.4.5,4,1.6.7.5,2.1,1.4,3.1,3.3,1.1,2.1,1,4.1.9,4.8,0,1-.2,1.8-.8,2.4,0,0,0,0,0,0,.1-.2,0-.5,0-.6-.3-1.9-1.6-3.8-1.6-3.8,0,0,0,0,0,0,0,0,0,0,0,0-.8-1.6-.8-1.5-.8-1.5-.6-1-1.3-2.2-2.5-3.2-.5-.4-.9-.7-1.2-.9-.2,0-.4-.2-.4-.1,0,0,.3.4.4.4.7.6,1.5,1.9,2,2.7.6,1,2,3.3,2.4,6.4,0,0,0,.2,0,.5,0,.2,0,.3,0,.3,0,.3.1.6.3.7,0,0,0,0,0,0-1,.2-2,0-2.2,0-1.3-.3-2.1-1.2-2.4-1.6-1.7-1.9-1.9-4.6-2.1-6.1-.1-1.2,0-2.1-.5-3.4-.3-.9-.8-1.5-1.1-1.9.6,0,1.5,0,2.4.3Z"/>
        </g>
        <g class="st24">
          <g>
            <ellipse class="st29" cx="23.7" cy="20.3" rx="5.4" ry="4.4" transform="translate(-2.7 36.9) rotate(-72.8)"/>
            <path class="st29" d="M27.6,17.7c-.1,1.1-2,2.3-3.6,1.8-1.7-.5-2.5-2.7-1.9-3.6.3-.5,1.2-.8,1.3-.8.4-.1.4,0,1-.2.9-.3,1.1-.5,1.3-.4.3.1.2.6.7,1.1.3.3.4.3.7.6.4.4.6,1.1.5,1.5Z"/>
            <path class="st29" d="M19.7,22.9c0-1,2.1-2.4,3.8-1.8,1.6.5,2.5,2.7,1.9,3.6-.3.5-1.2.8-1.3.8-.4.1-.4,0-1,.2-.9.3-1.1.5-1.3.4-.3-.1-.2-.5-.7-1.1-.3-.4-.4-.4-.8-.8-.1-.1-.6-.8-.6-1.3Z"/>
          </g>
          <ellipse class="st14" cx="22.6" cy="16.2" rx=".3" ry=".2" transform="translate(-5.1 18.4) rotate(-40)"/>
          <ellipse class="st14" cx="26.4" cy="16.9" rx="0" ry=".2" transform="translate(-1.6 2.9) rotate(-6)"/>
          <ellipse class="st14" cx="26.2" cy="16.5" rx="0" ry=".2" transform="translate(-1.6 2.8) rotate(-6)"/>
          <ellipse class="st14" cx="22.4" cy="17.1" rx=".2" ry=".1" transform="translate(-5.7 18.4) rotate(-40)"/>
          <ellipse class="st14" cx="22" cy="16.7" rx=".1" ry="0" transform="translate(-5.6 18.1) rotate(-40)"/>
        </g>
        <g id="wortel1" data-name="wortel">
          <g id="doorzichtig_blaadjes2" data-name="doorzichtig_blaadjes">
            <path class="st15" d="M23.8,5.3c1.6-.9,3-1,3.8-1,2.6-.2,4.6.7,5.6,1.2-.4.3-1.1.7-1.9,1.4-3.3,2.9-3,5.2-5.5,6.3-2.4,1-3.8,1.1-3.8,1.1-.3,0-.8,0-1.3.4-.7.4-1,1.2-1.1,1.8,0-.6,0-1.4.4-2.3.5-1.3,1.4-2,2.5-3,.9-.8,2.2-2,3.8-3.5,1-.9,1.9-1.3,2.4-1.5.2,0,.5-.2.5-.2,0,0-1,0-1.8.2-1.4.3-2.3,1-3.3,1.7-.5.4-1.2.9-1.9,1.6-.5.5-1.1,1.3-1.5,2.3-1.2,2.4-1,4.8-1.1,4.8,0,0-.4-2.1.3-4.8.4-1.6,1.2-4.8,4-6.4Z"/>
            <path class="st15" d="M11.1,1.3c.8.2,2.4.5,4,1.6.7.5,2.1,1.4,3.1,3.3.1.3,1.2,2.3.9,4.8,0,.4-.1.8-.2,1.4,0,.5,0,.9-.1,1-.2,1.6.5,3.5.4,3.5,0,0-.5-.7-.9-1.9-.4-1.2-.4-1.9-.6-3.2-.1-.7-.4-1.6-.8-2.8,0,0,0,0,0,0,0,0,0,0,0,0-.5-1.3-1.5-3.2-3.3-4.8-.4-.4-.8-.7-1.2-.9-.2,0-.4-.2-.4-.1,0,0,.3.4.4.4.8.7,1.7,2.3,2.2,3.5.5,1.3.4,1.5,1.1,3.4,0,.1.3.9.7,1.6.3.6.7,1.2.7,1.2h0c.6.8.8,1,1.3,1.7.6.8,1,1.8.9,1.9-.2.1-.9-1.5-2.7-2.3-.9-.4-1.4-.3-2.5-.9,0,0-.9-.5-1.6-1.1-1.6-1.6-1.9-4.1-2.1-6.1-.1-1.2,0-2.1-.5-3.4-.3-.9-.8-1.5-1.1-1.9.6,0,1.5,0,2.4.3Z"/>
          </g>
          <g>
            <g id="wortel2" data-name="wortel">
              <path class="st16" d="M24.2,25.1c.7,6.1,1.1,9.1.4,9.4-.9.4-3-3.8-4.8-7.4-1.6-3.2-4.2-8.5-2.8-10.1.5-.5,1.5-.7,2.5-1,.9-.2,1.4-.3,1.8-.2,1.4.3,2.1,3.2,2.8,9.3Z"/>
            </g>
            <path class="st27" d="M20.7,17.2c.6-.1,1-.3,1.3-.4.1,0,.2-.1.3-.1,0,0,0,0,0-.1,0,0-.1-.1-.2-.2,0,0-.1.1-.2.2-.4.3-.8.4-1.3.5-.8.2-1.1.3-1.1.4,0,0,.8,0,1.3-.2Z"/>
            <path class="st27" d="M21.2,18.3c.5-.1.9-.2,1.3-.4.1,0,.2-.1.3-.2h0c0,0,0-.1,0-.1,0,0,0-.2,0-.2,0,0-.2.1-.3.2-.4.3-.8.4-1.3.5-.8.2-1.1.3-1.1.4,0,0,.8,0,1.3-.2Z"/>
            <path class="st27" d="M17.7,18.5c-.2,0-.4.1-.6.2-.2,0-.3,0-.4,0h0v-.2c.6-.2,1.1-.3,1.5-.4.2,0,.4,0,.4,0,0,0-.5.3-.9.4Z"/>
            <path class="st27" d="M17.3,18.9c-.2,0-.3.1-.4.1-.1,0-.2,0-.3,0h0v-.2c.4,0,.7-.1,1-.2.1,0,.3,0,.3,0,0,0-.3.2-.6.3Z"/>
          </g>
        </g>
        <g id="melk1" data-name="melk" class="st24">
          <g>
            <path class="st12" d="M34.7,13.9c-.5.8-.9,1.5-1.4,2.3,1.1,0,2.2,0,3.3,0-.6-.7-1.3-1.5-1.9-2.2Z"/>
            <path class="st21" d="M34.2,15.1c.8.4,1.6.7,2.4,1.1-.3-.9-.6-1.8-.9-2.8-.5.6-1,1.1-1.5,1.7Z"/>
            <path class="st30" d="M33.4,16.3c-2.8-.5-5.6-1.1-8.3-1.6.7-.9,1.5-1.9,2.2-2.8,2.8.5,5.7,1.1,8.5,1.6-.8.9-1.6,1.9-2.4,2.8Z"/>
            <path class="st25" d="M35.8,13.5c-2.8-.6-5.7-1.1-8.5-1.7,0-.2,0-.3,0-.5,0-.3,0-.6,0-.9,0,0,0-.1.2-.2.2-.1.5-.2.7-.1.4,0,3.2.6,7,1.3.1,0,.4,0,.6.3,0,.1.1.3,0,.6,0,.3,0,.7-.1,1.1Z"/>
            <path class="st21" d="M31.4,29.6c1.4-.8,2.9-1.6,4.3-2.4.3-3.7.5-7.3.8-11-1.1,0-2.2,0-3.3,0-.6,4.4-1.2,8.9-1.9,13.3Z"/>
            <path class="st23" d="M31.6,29.6c-2.8-.6-5.7-1.1-8.5-1.7.7-4.4,1.3-8.8,2-13.3,2.8.6,5.6,1.1,8.3,1.7-.6,4.4-1.2,8.9-1.8,13.3Z"/>
          </g>
          <g>
            <path class="st26" d="M31.9,13.9c-.1.1-.3.3-.6.5-.4.2-.8.2-.9.2-.3,0-.7,0-1.1-.2-.3-.2-.4-.4-.5-.5v-1.2h3.1v1.3Z"/>
            <path class="st11" d="M31.8,13.8c-.1.1-.3.3-.7.5-.4.2-.7.2-.8.2-.2,0-.6,0-.9-.2-.2-.1-.4-.3-.4-.4v-.7c0,0,.6.6,1.4.6s.9,0,1.4-.6v.7Z"/>
            <path class="st11" d="M31.9,12.8c0,.5-.9.9-1.7.8-.7,0-1.5-.5-1.4-1,0-.5.9-.9,1.6-.9.7,0,1.6.5,1.5,1.1Z"/>
            <path class="st26" d="M31.7,12.7c0,.5-.8.8-1.5.7-.6,0-1.3-.4-1.3-.9,0-.5.8-.8,1.4-.8.7,0,1.4.5,1.3.9Z"/>
          </g>
        </g>
        <g id="melk2" data-name="melk">
          <g>
            <path class="st12" d="M33.6,14.1c-.5.8-.9,1.5-1.4,2.3,1.1,0,2.2,0,3.3,0-.6-.7-1.3-1.5-1.9-2.2Z"/>
            <path class="st21" d="M33.2,15.3c.8.4,1.6.7,2.4,1.1-.3-.9-.6-1.8-.9-2.8-.5.6-1,1.1-1.5,1.7Z"/>
            <path class="st30" d="M32.3,16.5c-2.8-.5-5.6-1.1-8.3-1.6.7-.9,1.5-1.9,2.2-2.8,2.8.5,5.7,1.1,8.5,1.6-.8.9-1.6,1.9-2.4,2.8Z"/>
            <path class="st25" d="M34.7,13.7c-2.8-.6-5.7-1.1-8.5-1.7,0-.2,0-.3,0-.5,0-.3,0-.6,0-.9,0,0,0-.1.2-.2.2-.1.5-.2.7-.1.4,0,3.2.6,7,1.3.1,0,.4,0,.6.3,0,.1.1.3,0,.6,0,.3,0,.7-.1,1.1Z"/>
            <path class="st21" d="M30.4,29.8c1.4-.8,2.9-1.6,4.3-2.4.3-3.7.5-7.3.8-11-1.1,0-2.2,0-3.3,0-.6,4.4-1.2,8.9-1.9,13.3Z"/>
            <path class="st23" d="M30.5,29.8c-2.8-.6-5.7-1.1-8.5-1.7.7-4.4,1.3-8.8,2-13.3,2.8.6,5.6,1.1,8.3,1.7-.6,4.4-1.2,8.9-1.8,13.3Z"/>
          </g>
          <g>
            <path class="st26" d="M30.8,14.1c-.1.1-.3.3-.6.5-.4.2-.8.2-.9.2-.3,0-.7,0-1.1-.2-.3-.2-.4-.4-.5-.5v-1.2h3.1v1.3Z"/>
            <path class="st11" d="M30.8,14c-.1.1-.3.3-.7.5-.4.2-.7.2-.8.2-.2,0-.6,0-.9-.2-.2-.1-.4-.3-.4-.4v-.7c0,0,.6.6,1.4.6s.9,0,1.4-.6v.7Z"/>
            <path class="st11" d="M30.8,13c0,.5-.9.9-1.7.8-.7,0-1.5-.5-1.4-1,0-.5.9-.9,1.6-.9.7,0,1.6.5,1.5,1.1Z"/>
            <path class="st26" d="M30.6,12.9c0,.5-.8.8-1.5.7-.6,0-1.3-.4-1.3-.9,0-.5.8-.8,1.4-.8.7,0,1.4.5,1.3.9Z"/>
          </g>
        </g>
      </g>
      <g id="voorkant_tas1" data-name="voorkant_tas">
        <path class="st28" d="M30.6,57.6c-9.3-1.2-18.6-2.5-27.9-3.7-.1-12.2-.2-24.4-.4-36.6,9.4.8,18.8,1.5,28.3,2.3v37.9Z"/>
        <rect class="st20" x="31.5" y="18.4" width=".7" height="1.1"/>
        <path class="st19" d="M32,47.1c-.5,3.5-.9,7-1.4,10.5V19.7c.2,0,.4-.1.6-.2.3-.1.2-.2.5-.3.3-.1.5-.2.5-.4,0,0,0,0,0,0,0,0,0,0,0,.1,0,0,0,0,0,0,0,.1.1,12.1,0,17.4,0,2.6,0,6.3-.3,10.9Z"/>
        <path class="st28" d="M38.4,45.4l-6.3,1.7c.2-13.2.3-28.2.2-28.4,0,0,0,0,0,0,0,0,0,0,0,0,0,0,0,0,0,0-.2,0-.4-.1-.5-.1.3,0,.5,0,.8,0,1.9-.4,3.8-.8,5.7-1.3.1,9.4.2,18.9.3,28.3Z"/>
        <path class="st28" d="M38.5,52.5c0-2.4-.1-4.7-.2-7.1-2.1.5-4.2,1.1-6.3,1.6,2.2,1.8,4.3,3.7,6.5,5.5Z"/>
        <path class="st10" d="M30.6,57.6c2.6-1.7,5.3-3.4,7.9-5.1-2.2-1.8-4.3-3.7-6.5-5.5-.5,3.5-.9,7.1-1.4,10.6Z"/>
      </g>
      <g id="voorhendel1" data-name="voorhendel">
        <g>
          <rect class="st28" x="11" y="11.5" width="2.3" height="7.9" transform="translate(.1 0) rotate(.4)"/>
          <path class="st28" d="M11,11.5h2.3s0-2.3,0-2.3c-.8.8-1.6,1.5-2.3,2.3Z"/>
        </g>
        <g>
          <rect class="st28" x="24.5" y="12.4" width="2.3" height="7.5" transform="translate(51.1 32.4) rotate(-179.6)"/>
          <path class="st28" d="M26.8,12.4h-2.3s0-2.2,0-2.2c.8.7,1.5,1.4,2.3,2.2Z"/>
        </g>
        <path class="st20" d="M24.5,12.3c-3.7-.2-7.5-.4-11.2-.7,0-.8,0-1.6,0-2.4,3.7.3,7.4.6,11.1.9,0,.7,0,1.4,0,2.2Z"/>
      </g>
    </g>
    <text class="st4" transform="translate(40.6 40.7)"><tspan x="0" y="0">Red De Restjes</tspan></text>
    <text class="st3" transform="translate(40.1 25.4)"><tspan x="0" y="0">RED</tspan><tspan x="0" y="13.1">DE</tspan><tspan x="0" y="26.1">RESTJES</tspan></text>
  </g>
</svg>