<?xml version="1.0" encoding="UTF-8"?>
<svg id="Layer_1" data-name="Layer 1" xmlns="http://www.w3.org/2000/svg" width="58.4" height="86" viewBox="0 0 58.4 86">
  <defs>
    <style>
      .cls-1, .cls-2, .cls-3, .cls-4, .cls-5 {
        fill: none;
      }

      .cls-1, .cls-2, .cls-5 {
        stroke: #8cc63f;
        stroke-linejoin: round;
      }

      .cls-1, .cls-3, .cls-4 {
        stroke-width: 1.5px;
      }

      .cls-1, .cls-4 {
        stroke-linecap: round;
      }

      .cls-2 {
        stroke-width: 2px;
      }

      .cls-3, .cls-4 {
        stroke: #8cc63f;
        stroke-miterlimit: 10;
      }

      .cls-5 {
        stroke-width: 4px;
      }

      .cls-6 {
        fill: #8cc63f;
        font-family: Ayuthaya, Ayuthaya;
        font-size: 7.6px;
      }
    </style>
  </defs>
  <g id="melk">
    <g>
      <path class="cls-5" d="M52.2,24.8c-1.6-3.4-3.2-6.8-4.9-10.3"/>
      <path class="cls-5" d="M32.2,13.9c5,.2,10,.5,15.1.7-2.5,4.1-5,8.2-7.6,12.3-11.1-.6-22.2-1.1-33.2-1.7,2.3-4.1,4.6-8.1,6.9-12.2,2.5.1,4.9.2,7.4.3"/>
      <path class="cls-5" d="M21.7,13.3c-2.8-.1-5.5-.2-8.3-.3,0-.6,0-1.3-.1-1.9,0-1.2-.2-2.4-.3-3.5,0-.1.2-.4.5-.7.7-.7,1.7-.8,2.6-.9,1.7,0,12.8.4,27.8,1.1.5,0,1.8,0,2.5.9.4.5.6,1.1.7,2.5,0,1.1.2,2.6.1,4.3-5.3-.4-10.6-.7-16-1.1"/>
      <path class="cls-5" d="M39.7,79.7c4.2-3.6,8.3-7.2,12.5-10.8,0-14.7,0-29.4,0-44.1l-12.7,2.2c0,17.6.1,35.2.2,52.8Z"/>
      <path class="cls-5" d="M40.1,79.6c-11.3-.6-22.6-1.3-33.9-1.9,0-17.5.2-35.1.3-52.6,11.1.6,22.2,1.2,33.3,1.8.1,17.6.2,35.2.4,52.7Z"/>
    </g>
    <g>
      <path class="cls-2" d="M31.9,13.7c.2,1.6.5,3.3.7,4.9-.3.5-1,1.4-2.1,2.1-1.5,1-2.9,1.2-3.5,1.3-1,.2-2.6.4-4.2-.2-1.2-.5-1.8-1.2-2.2-1.6l-.7-4.8h.9"/>
      <path class="cls-2" d="M32.2,18.3c-.4.5-1.1,1.4-2.3,2.2-1.3.8-2.6,1.1-3.1,1.2-.9.2-2.3.4-3.7-.2-1-.4-1.6-1.1-1.9-1.4l-.4-2.7c.3.2,2.6,1.9,5.8,1.4s3.4-.5,5.2-3l.4,2.6Z"/>
      <path class="cls-2" d="M32,14.2c.1,2.1-3.1,4-6,4.2-2.6.2-5.9-1.1-6.1-3.2-.2-2.1,2.9-4,5.6-4.3,2.9-.3,6.4,1.2,6.5,3.2Z"/>
      <path class="cls-2" d="M31.2,14.1c0,1.8-2.8,3.5-5.3,3.7-2.3.1-5.2-1-5.4-2.8-.1-1.8,2.6-3.5,4.9-3.8,2.6-.3,5.6,1,5.7,2.9Z"/>
    </g>
    <g id="klok">
      <path class="cls-3" d="M18.7,42c1.8-1.4,4-2.3,6.4-2.3,5.6,0,10.2,4.6,10.2,10.2s-4.6,10.2-10.2,10.2-10.2-4.6-10.2-10.2.3-2.7.8-3.9"/>
      <line class="cls-4" x1="16.9" y1="50" x2="15.6" y2="50"/>
      <line class="cls-4" x1="25.1" y1="40.3" x2="25.1" y2="41.7"/>
      <line class="cls-4" x1="25.1" y1="58.3" x2="25.1" y2="59.6"/>
      <line class="cls-4" x1="34.6" y1="50" x2="33.3" y2="50"/>
      <line class="cls-4" x1="25.1" y1="44.4" x2="25.1" y2="50"/>
      <line class="cls-4" x1="28.2" y1="52.5" x2="25.1" y2="50"/>
      <g>
        <path class="cls-1" d="M15.9,36.6c-1.9,3.2-3.7,6.4-5.6,9.7h11.4c-1.9-3.2-3.9-6.4-5.8-9.7Z"/>
        <text class="cls-6" transform="translate(13.7 45.2)"><tspan x="0" y="0">!</tspan></text>
      </g>
    </g>
  </g>
</svg>