<?xml version="1.0" encoding="UTF-8"?>
<svg id="Layer_3" data-name="Layer 3" xmlns="http://www.w3.org/2000/svg" width="58.4" height="86" viewBox="0 0 58.4 86">
  <defs>
    <style>
      .cls-1 {
        stroke-width: 2px;
      }

      .cls-1, .cls-2, .cls-3 {
        stroke-linecap: round;
      }

      .cls-1, .cls-2, .cls-3, .cls-4 {
        fill: none;
        stroke: #8cc63f;
        stroke-linejoin: round;
      }

      .cls-2 {
        stroke-width: 3px;
      }

      .cls-3, .cls-4 {
        stroke-width: 4px;
      }
    </style>
  </defs>
  <rect class="cls-4" x="6.9" y="12.4" width="45.1" height="45.1"/>
  <line class="cls-3" x1="11.8" y1="73.3" x2="47" y2="73.3"/>
  <line class="cls-3" x1="52.5" y1="22.3" x2="56.4" y2="21.4"/>
  <line class="cls-3" x1="6.3" y1="22.3" x2="2" y2="21.3"/>
  <path class="cls-1" d="M17.5,63.8c-.9,1.6-1.6,3.5-1.2,5.4,1,3.8,5.5,4.2,6,0,.4-2.5-2.1-10-4.8-5.5h0Z"/>
  <path class="cls-1" d="M26.1,70c.5,1,1.6,2.2,3.1,2.2,1.5,0,2.6-1.2,3.1-2.2,1.4-3-1.3-7.8-3.3-7.7-2,0-4.4,4.8-2.9,7.7Z"/>
  <path class="cls-1" d="M40.9,63.8c.9,1.6,1.6,3.5,1.2,5.4-1,3.8-5.5,4.2-6,0-.4-2.5,2.1-10,4.8-5.5h0Z"/>
  <g>
    <g>
      <path class="cls-2" d="M33,28.7c1.4.1,2.9.2,4.3.4.3-1.4.5-2.8.8-4.2"/>
      <path class="cls-2" d="M23.4,28.6c.4-.8,1-2,2.1-3.1.9-1,2-2.3,3.3-2.6,2.1-.5,4.9,1.4,6.8,4.5"/>
    </g>
    <g>
      <path class="cls-2" d="M33.7,40.9c-1,1-2,2.1-3,3.1.9,1.1,1.8,2.2,2.7,3.2"/>
      <path class="cls-2" d="M39.9,33.6c.4.8.9,2,1.1,3.6.2,1.4.5,3-.1,4.2-1,2-4.2,2.9-7.8,2.4"/>
    </g>
    <g>
      <path class="cls-2" d="M22.3,36.3c-.6-1.3-1.1-2.6-1.7-4-1.3.4-2.7.9-4,1.3"/>
      <path class="cls-2" d="M26.6,44.8c-.9,0-2.2,0-3.7-.3-1.3-.3-3-.7-3.9-1.7-1.5-1.6-1.1-4.9.8-8.1"/>
    </g>
  </g>
</svg>