<?xml version="1.0" encoding="UTF-8"?>
<svg id="Layer_1" data-name="Layer 1" xmlns="http://www.w3.org/2000/svg" viewBox="0 0 101.76 114.55">
  <defs>
    <style>
      .cls-1 {
        fill: #eabb8d;
      }

      .cls-2 {
        fill: #e6e6e6;
      }

      .cls-3 {
        fill: #d0efff;
      }

      .cls-4 {
        fill: #c59e7f;
      }

      .cls-5 {
        fill: #fffc97;
      }

      .cls-6 {
        fill: #8cc63f;
      }

      .cls-7 {
        fill: #f1641c;
      }

      .cls-8 {
        fill: #e9c18a;
      }

      .cls-9 {
        fill: #d8ad82;
      }

      .cls-10 {
        fill: #cea780;
      }

      .cls-11 {
        fill: #cae9ff;
      }

      .cls-12 {
        fill: #da8c4a;
      }

      .cls-13 {
        fill: #d3f0ff;
      }

      .cls-14 {
        fill: #d4f0ff;
      }

      .cls-15 {
        opacity: .16;
      }

      .cls-16 {
        fill: #f2f2f2;
      }

      .cls-17 {
        fill: #e35a16;
      }

      .cls-18 {
        fill: #e2b687;
      }

      .cls-19 {
        fill: #fde051;
      }

      .cls-20 {
        fill: #d8f3ff;
      }
    </style>
  </defs>
  <g id="achterhendel">
    <g>
      <path class="cls-4" d="M33.09,29.14c-1.58-.08-3.17-.16-4.75-.24,0-3.84,0-7.67-.01-11.51l4.84.04c-.02,3.9-.05,7.81-.07,11.71Z"/>
      <path class="cls-4" d="M28.32,17.39l4.84.04.03-3.36c-1.62,1.11-3.24,2.21-4.86,3.32Z"/>
    </g>
    <g>
      <path class="cls-4" d="M56.42,30.58c1.58.08,3.17.16,4.75.24.03-3.51.07-7.02.1-10.53l-4.84-.04c0,3.44-.01,6.89-.02,10.33Z"/>
      <path class="cls-4" d="M61.27,20.29l-4.84-.04.04-4.36c1.6,1.46,3.2,2.93,4.8,4.39Z"/>
    </g>
    <path class="cls-9" d="M56.47,20.12c-7.81-.43-15.63-.87-23.44-1.3.06-1.58.11-3.16.17-4.74,7.76.59,15.52,1.19,23.28,1.78,0,1.42,0,2.83,0,4.25Z"/>
  </g>
  <g id="achterkant_tas" data-name="achterkant tas">
    <path class="cls-4" d="M18.92,40.13c17.05.05,34.11.11,51.16.16,1.5-2.89,3-5.77,4.5-8.66-18.75-1.12-37.5-2.25-56.25-3.37.2,3.96.4,7.91.59,11.87Z"/>
    <rect class="cls-18" x="14.51" y="30.5" width="1.1" height="1.92"/>
    <path class="cls-4" d="M17.39,40.93H0v-8.74c8.64-.86,11.79-.96,12.64-.8.11.02.61.13,1.27.08.78-.06,1.39-.3,1.78-.48.57,3.32,1.13,6.63,1.7,9.95Z"/>
    <path class="cls-10" d="M14.34,37.4c1.5-.03,3-.05,4.5-.08-.17-3.02-.34-6.04-.51-9.06-.84.44-1.53.71-2.04.88-.45.15-.94.29-1.36.72-.22.23-.35.47-.42.64.31.04.76.16.93.48.18.34-.03.76-.08.88-.29.63-.64,2.12-1.02,5.53Z"/>
  </g>
  <g id="eten_in_tas" data-name="eten in tas">
    <g id="brood">
      <ellipse class="cls-12" cx="18.83" cy="40.95" rx="13.01" ry="30.2" transform="translate(-12.18 8.24) rotate(-18.78)"/>
      <path class="cls-8" d="M23.65,24.86c-.41,1.22-4.75.9-7.32.72-2.44-.18-7.27-.52-7.46-1.83-.19-1.28,4.09-3.69,8.22-3.2,3.66.44,6.96,3.13,6.56,4.31Z"/>
      <path class="cls-8" d="M28.93,35.15c-.5,1.49-5.83,1.11-8.99.88-2.99-.22-8.93-.64-9.16-2.25-.23-1.58,5.03-4.53,10.1-3.93,4.5.54,8.55,3.84,8.06,5.29Z"/>
      <path class="cls-8" d="M31.71,45.38c-.47,1.55-5.98,1.29-9.25,1.14-3.09-.15-9.23-.43-9.51-2.08-.28-1.62,5.06-4.8,10.3-4.31,4.65.44,8.92,3.74,8.46,5.25Z"/>
      <path class="cls-8" d="M33.16,56.27c-.44,1.31-5.14.98-7.92.78-2.64-.19-7.86-.57-8.07-1.98-.2-1.39,4.43-3.99,8.89-3.46,3.96.47,7.53,3.38,7.1,4.66Z"/>
    </g>
    <g>
      <g>
        <path class="cls-19" d="M53.55,40.48c-1.84,5.61-7.29,8.99-12.16,7.56s-7.34-7.14-5.5-12.74c1.84-5.61,7.29-8.99,12.16-7.56,4.88,1.43,7.34,7.14,5.5,12.74Z"/>
        <path class="cls-19" d="M52.7,32.84c-.22,2.27-4.2,4.6-7.54,3.62-3.45-1.01-5.19-5.26-4.05-7.02.64-.98,2.42-1.58,2.65-1.66.82-.28.93-.13,2.08-.45,1.89-.52,2.2-1.07,2.81-.84.71.27.43,1.09,1.53,2.27.62.66.88.58,1.41,1.15.81.86,1.19,2.1,1.11,2.93Z"/>
        <path class="cls-19" d="M36.33,43.04c.04-2,4.32-4.73,7.91-3.59,3.38,1.07,5.19,5.26,4.05,7.02-.64.98-2.42,1.58-2.65,1.66-.82.28-.93.13-2.08.45-1.89.52-2.2,1.07-2.81.84-.68-.26-.46-.96-1.53-2.27-.66-.8-.92-.74-1.57-1.5-.22-.26-1.34-1.57-1.31-2.61Z"/>
      </g>
      <ellipse class="cls-5" cx="42.38" cy="29.89" rx=".62" ry=".37" transform="translate(-9.46 31.31) rotate(-36.76)"/>
      <ellipse class="cls-5" cx="50.23" cy="31.24" rx=".16" ry=".31" transform="translate(-3.26 5.98) rotate(-6.59)"/>
      <ellipse class="cls-5" cx="49.85" cy="30.36" rx=".2" ry=".35" transform="translate(-3.19 6) rotate(-6.68)"/>
      <ellipse class="cls-5" cx="41.89" cy="31.54" rx=".38" ry=".27" transform="translate(-10.52 29.71) rotate(-34.98)"/>
      <ellipse class="cls-5" cx="41.11" cy="30.82" rx=".25" ry=".18" transform="translate(-10.24 29.14) rotate(-34.98)"/>
    </g>
    <g id="wortel">
      <g id="doorzichtig_blaadjes" data-name="doorzichtig blaadjes">
        <path class="cls-6" d="M44.93,8.32c3.24-1.7,6.3-1.93,7.91-2.03,5.42-.35,9.64,1.32,11.69,2.29-.88.53-2.35,1.47-3.98,2.83-6.97,5.8-6.27,10.3-11.5,12.44-5.07,2.07-7.89,2.25-7.89,2.25-.63.04-1.72.07-2.8.72-1.42.86-2.06,2.36-2.38,3.53-.03-1.15.09-2.8.85-4.57,1.08-2.53,2.86-3.87,5.26-5.86,1.94-1.6,4.65-3.93,7.89-6.98,2.16-1.79,3.89-2.58,5.1-2.96.35-.11,1-.3.98-.39-.03-.15-2.01-.02-3.71.36-2.89.64-4.91,1.97-6.94,3.34-1.05.7-2.46,1.74-4,3.18-.97,1.01-2.2,2.5-3.22,4.49-2.48,4.83-2.08,9.39-2.21,9.38-.15,0-.76-4.23.65-9.46.86-3.19,2.41-9.47,8.31-12.56Z"/>
        <path class="cls-6" d="M18.33.5c1.75.34,4.93.99,8.27,3.08,1.47.92,4.4,2.8,6.45,6.45.28.49,2.48,4.62,1.93,9.47-.09.77-.24,1.49-.4,2.68-.14,1-.21,1.77-.22,1.89-.31,3.25,1.11,6.86.76,6.98-.16.06-1.09-1.48-1.87-3.77-.83-2.45-.82-3.77-1.36-6.26-.28-1.29-.78-3.21-1.72-5.53,0,0,0,0,0,0,0,0,0,0,0,0-1.1-2.67-3.12-6.31-6.87-9.44-.84-.7-1.67-1.29-2.49-1.81-.37-.16-.8-.32-.85-.22-.08.14.63.71.76.82,1.58,1.3,3.5,4.5,4.55,6.87,1.14,2.57.73,3.05,2.21,6.66.1.23.7,1.71,1.53,3.13.67,1.16,1.49,2.28,1.53,2.33h0c1.21,1.65,1.63,2.05,2.72,3.45,1.27,1.64,2.14,3.59,1.87,3.77-.35.23-1.86-2.91-5.6-4.57-1.96-.87-2.89-.63-5.26-1.84-.14-.07-1.88-.98-3.25-2.26-3.42-3.18-3.96-8.08-4.3-11.96-.21-2.46-.03-4.15-1.1-6.68-.72-1.68-1.65-2.94-2.34-3.74,1.29,0,3.04.11,5.06.5Z"/>
      </g>
      <g>
        <g id="wortel-2" data-name="wortel">
          <path class="cls-7" d="M45.62,47.5c1.54,12.01,2.31,18.02.93,18.54-1.98.75-6.26-7.45-10.03-14.66-3.34-6.39-8.69-16.83-5.76-19.87.98-1.01,3.13-1.47,5.21-1.91,1.83-.39,2.91-.62,3.78-.41,2.94.68,4.34,6.39,5.87,18.31Z"/>
        </g>
        <path class="cls-17" d="M38.42,31.89c1.22-.22,2.13-.62,2.72-.87.25-.11.46-.2.61-.28-.05-.08-.11-.16-.17-.24-.11-.15-.23-.28-.34-.4-.09.1-.24.24-.43.39-.82.64-1.64.71-2.8,1.03-1.59.44-2.39.66-2.38.72.02.1,1.72-.15,2.79-.34Z"/>
        <path class="cls-17" d="M39.52,34.06c1.1-.2,1.89-.37,2.72-.87.23-.14.4-.27.52-.36v-.03c-.05-.1-.08-.19-.08-.21-.05-.14-.15-.36-.17-.4-.13.12-.33.29-.6.47-.85.57-1.6.69-2.8,1.03-1.59.44-2.39.66-2.38.72.02.1,1.72-.15,2.79-.34Z"/>
        <path class="cls-17" d="M32.02,34.29c-.41.15-.75.28-1.21.39-.35.08-.64.13-.86.15v-.48c1.33-.35,2.4-.61,3.16-.78.52-.12.85-.18.86-.14.03.09-1.13.55-1.95.85Z"/>
        <path class="cls-17" d="M31.35,35.24c-.32.11-.67.21-.77.24-.22.06-.4.12-.54.15v-.4c.86-.15,1.54-.3,2.02-.4.28-.06.54-.12.55-.1.02.05-.72.33-1.25.5Z"/>
      </g>
    </g>
    <g id="melk">
      <g>
        <path class="cls-3" d="M67.58,25.35c-.94,1.53-1.88,3.06-2.82,4.59,2.28-.05,4.57-.11,6.85-.16-1.34-1.48-2.68-2.95-4.02-4.43Z"/>
        <path class="cls-11" d="M66.69,27.69c1.64.7,3.28,1.39,4.92,2.09-.59-1.82-1.18-3.65-1.78-5.47-1.05,1.13-2.1,2.26-3.14,3.38Z"/>
        <path class="cls-20" d="M64.91,29.94c-5.8-1.08-11.6-2.17-17.39-3.25,1.53-1.86,3.05-3.71,4.58-5.57,5.91,1.08,11.82,2.15,17.73,3.23-1.64,1.87-3.28,3.73-4.92,5.6Z"/>
        <path class="cls-14" d="M69.82,24.49c-5.91-1.12-11.82-2.25-17.73-3.37.03-.31.06-.64.09-.96.05-.61.07-1.2.09-1.76.05-.07.16-.2.34-.32.42-.28.95-.3,1.44-.24.91.11,6.7,1.11,14.59,2.57.27.03.93.15,1.27.64.2.28.21.59.17,1.28-.04.55-.11,1.29-.26,2.17Z"/>
        <path class="cls-11" d="M60.83,56.25c3.03-1.6,6.05-3.21,9.08-4.81.57-7.22,1.13-14.44,1.7-21.66-2.29.05-4.58.11-6.87.16-1.3,8.77-2.6,17.54-3.9,26.31Z"/>
        <path class="cls-13" d="M61.09,56.25c-5.91-1.13-11.82-2.26-17.73-3.4,1.39-8.73,2.77-17.47,4.16-26.2,5.8,1.1,11.6,2.19,17.39,3.29-1.27,8.77-2.55,17.54-3.82,26.31Z"/>
      </g>
      <g>
        <path class="cls-16" d="M61.77,25.33c-.22.23-.62.61-1.27.9-.84.38-1.61.41-1.95.42-.54.01-1.39.04-2.21-.42-.58-.32-.88-.74-1.02-.97v-2.43h6.45v2.5Z"/>
        <path class="cls-2" d="M61.6,25.12c-.23.23-.67.62-1.38.92-.77.32-1.46.36-1.72.37-.48.01-1.23.03-1.94-.37-.51-.28-.77-.65-.9-.86v-1.38c.15.14,1.21,1.11,2.97,1.11.23,0,1.82-.02,2.97-1.11v1.32Z"/>
        <path class="cls-2" d="M61.77,23.04c-.1,1.03-1.96,1.78-3.48,1.67-1.4-.11-3.04-.98-2.97-2.01.07-1.03,1.83-1.78,3.27-1.73,1.55.05,3.28,1.04,3.18,2.08Z"/>
        <path class="cls-16" d="M61.34,22.96c-.09.91-1.73,1.57-3.07,1.47-1.23-.09-2.68-.87-2.62-1.77.06-.91,1.62-1.57,2.88-1.53,1.37.04,2.89.92,2.8,1.84Z"/>
      </g>
    </g>
  </g>
  <path class="cls-15" d="M67,113.8s.01,0,.02.01c2.14-1.32,4.27-2.63,6.41-3.95,8.7-5.21,17.4-10.42,26.1-15.63-.87-.15-1.75-.29-2.62-.44.3-.15.6-.3.91-.45.35-.58.7-1.15,1.05-1.73.51-.21.9-.4,1.18-.54.37-.19.5-.27.46-.38-.06-.18-.58-.3-.8-.34-2.25-.51-4.28-.96-6-1.34.61-.07,1.25-.13,1.94-.19,2.01-.17,3.72-.25,4.83-.29-.94-.38-2.69-.99-5.39-1.53.58-.06,1.19-.12,1.85-.17,2.08-.17,3.81-.25,4.83-.29-1.32-.53-4.21-1.52-9.11-2.1-1.46-.17-4.23-.49-7.88-.43-3.3.06-6.03.47-8.23.97-1.2-.21-2.39-.42-3.59-.63.61-.7.62-1.25.62-1.35-.05-1.27-1.71-2.16-2.55-2.6-1.92-1-4.39-1.58-5.75-1.9-1.58-.36-3.06-.61-4.18-.78.22.31.43.78.26,1.33-.1.31-.29.57-.55.8-.35-.06-.68-.11-.99-.15.13.18.25.41.3.68-.31.21-.65.42-.99.67-.52.38-1.08.78-1.53,1.21-1.42-.93-3.4-1.52-5.82-1.62-5.03-.21-10.62,1.72-14.47,4.71-.95-.1-2.01-.22-3.17-.34l-4.18,2.43h.08c-9.9,5.92-19.81,11.83-29.71,17.74,15.81,3.11,31.61,6.23,47.42,9.34,1.24-.54,2.48-1.07,3.72-1.61-1.23.54-2.47,1.07-3.7,1.61,6.41-.25,12.82-.5,19.24-.76ZM91.94,87.62c.33.05.69.12.65.15-.05.04-.87,0-1.04-.02-.05,0-.09,0-.14,0-.06-.05-.12-.1-.18-.16,0,0,0,0,.01,0-.06-.01-.12-.02-.18-.03.02,0,.05,0,.07-.01.31.03.58.05.8.08ZM73.35,87.07c-.34.07-.65.15-.95.23-.98.12-1.89.28-2.78.5.23-.11.54-.27.86-.46.5-.16,1.05-.31,1.66-.47l1.21.2ZM70.19,88.35s.06,0,.09,0c-.02.04-.04.08-.05.12,0,.03-.01.05-.02.08,0-.02.02-.03.04-.05.11-.08.36-.12.51-.14.04,0,.08-.01.13-.02.92.01,1.63.1,2.09.16,0,0,.82.1,2.51.19-.81.12-1.63.26-2.45.41-.17.03-.35.07-.52.1-.64,0-1.29.03-1.95.07-.09-.03-.19-.06-.3-.09-.52-.13-1.28-.2-2.44-.29-.21-.03-.42-.07-.62-.1.78-.21,1.78-.4,2.98-.45ZM65.51,87.85s-.03-.05-.04-.08c.04-.03.09-.05.13-.08-.03.05-.06.1-.09.15ZM64.49,88.34s.06-.03.09-.05c.03.03.05.05.08.08l-.33-.06c.06,0,.11.02.17.03ZM67.18,87.56c-.11.36-.33.74-.73,1.11-.15-.03-.31-.05-.46-.08.27-.29.65-.66,1.19-1.03ZM66.93,84.36c-.62-.11-1.24-.22-1.86-.33,0,0,0-.02,0-.03,0-.01,0-.02,0-.03.3-.48.61-.71.81-1.13.63.54.91,1.04,1.07,1.52ZM62.59,110.69c-.73-.51-1.46-1.03-2.19-1.54,0,0,0,0,0,0,.73.51,1.46,1.03,2.18,1.54ZM82.81,85.48c2.43-.13,4.83-.24,7.66-.06,1.66.11,3.45.32,3.41.37-.03.03-.68,0-1.04-.02-1.24-.05-3.12-.04-5.87.18-.28.03-.56.06-.84.09-.82-.03-1.7-.03-2.64-.02-.33,0-.66.01-1,.03-.77-.13-1.53-.27-2.3-.4,1.01-.08,1.9-.13,2.62-.17ZM65.01,79.72c.09-.02.39.08.64.17.46.25.91.52,1.31.82.42.31.74.62.98.93-.68-.25-1.36-.45-1.99-.63-.12-.38-.33-.72-.66-.96-.06-.05-.41-.3-.27-.32Z"/>
  <g id="voorkant_tas" data-name="voorkant tas">
    <path class="cls-18" d="M59.05,111.67c-19.43-2.43-38.86-4.87-58.29-7.3-.25-24.06-.51-48.12-.76-72.19,19.68,1.52,39.37,3.05,59.05,4.57v74.91Z"/>
    <rect class="cls-10" x="61" y="34.19" width="1.53" height="2.09"/>
    <path class="cls-9" d="M62.02,90.9c-.99,6.92-1.98,13.85-2.97,20.77V36.68c.37-.09.81-.24,1.27-.48.57-.29.46-.37,1.02-.64.52-.26,1.09-.43,1.1-.72,0-.06-.02-.16,0-.16.02,0,.07.11.08.24.01.09,0,.16,0,.16-.04.27.23,23.97.17,34.33-.03,5.12-.17,12.48-.68,21.5Z"/>
    <path class="cls-18" d="M75.26,87.53c-4.41,1.12-8.82,2.25-13.24,3.37.33-25.97.65-55.65.42-56.15-.02-.05-.06-.11-.06-.11-.02-.03-.06-.09-.11-.13-.06-.05-.13-.06-.17-.08-.4-.17-.78-.23-1.1-.24.56-.03,1.12-.06,1.68-.08,3.97-.83,7.93-1.65,11.9-2.48.23,18.63.45,37.27.68,55.9Z"/>
    <path class="cls-18" d="M75.6,101.56c-.11-4.68-.23-9.36-.34-14.04-4.41,1.07-8.82,2.14-13.24,3.21,4.53,3.61,9.05,7.22,13.58,10.83Z"/>
    <path class="cls-1" d="M59.08,111.68c5.5-3.39,10.99-6.77,16.49-10.16-4.53-3.6-9.05-7.21-13.58-10.81-.97,6.99-1.94,13.98-2.91,20.97Z"/>
  </g>
  <g id="voorhendel">
    <g>
      <rect class="cls-18" x="18.11" y="20.62" width="4.84" height="15.57" transform="translate(.21 -.15) rotate(.42)"/>
      <path class="cls-18" d="M18.18,20.6l4.84.04.04-4.48c-1.62,1.48-3.25,2.97-4.87,4.45Z"/>
    </g>
    <g>
      <rect class="cls-18" x="46.24" y="22.25" width="4.84" height="14.76" transform="translate(97.1 59.61) rotate(-179.58)"/>
      <path class="cls-18" d="M51.14,22.26l-4.84-.04.03-4.25c1.6,1.43,3.2,2.86,4.8,4.29Z"/>
    </g>
    <path class="cls-10" d="M46.33,22.2l-23.44-1.3c.06-1.58.11-3.16.17-4.74,7.76.59,15.52,1.19,23.28,1.78,0,1.42,0,2.83,0,4.25Z"/>
  </g>
  <g>
    <path d="M19.49,55.2l-3.24-.57v-8.61l-1.89-.36v-3.03l7.03,1.36v3l-1.89-.36v8.57Z"/>
    <path d="M21.56,49.76c0-.92.1-1.74.31-2.45.21-.71.51-1.29.89-1.74.39-.45.86-.76,1.42-.94.56-.17,1.18-.19,1.86-.06.69.13,1.31.39,1.86.78.56.39,1.03.88,1.42,1.48.39.6.69,1.28.89,2.06.21.78.31,1.63.31,2.54s-.1,1.72-.31,2.43c-.21.71-.51,1.29-.89,1.75-.39.46-.86.78-1.42.97-.56.19-1.18.23-1.86.11-.69-.12-1.31-.38-1.86-.77-.56-.39-1.03-.89-1.42-1.49-.39-.6-.69-1.3-.89-2.09-.21-.79-.31-1.65-.31-2.58ZM24.9,50.38c0,.75.09,1.38.28,1.91.19.53.48.83.87.9.39.07.68-.12.87-.58.19-.46.28-1.06.28-1.8s-.09-1.37-.28-1.89c-.19-.52-.48-.81-.87-.88-.39-.07-.68.11-.87.56-.19.45-.28,1.04-.28,1.79Z"/>
    <path d="M31.26,51.56c0-.91.1-1.72.31-2.42.21-.7.51-1.27.89-1.72.39-.44.86-.75,1.42-.92.56-.17,1.18-.19,1.86-.05.69.13,1.31.39,1.86.78.56.38,1.03.87,1.42,1.46.39.59.69,1.27.89,2.04.21.77.31,1.6.31,2.5s-.1,1.7-.31,2.4c-.21.7-.51,1.27-.89,1.72-.39.45-.86.77-1.42.96-.56.19-1.18.22-1.86.1-.69-.12-1.31-.38-1.86-.76-.56-.39-1.03-.88-1.42-1.47-.39-.59-.69-1.28-.89-2.07-.21-.78-.31-1.63-.31-2.54ZM34.6,52.18c0,.74.09,1.36.28,1.88.19.52.48.82.87.89.39.07.68-.12.87-.57.19-.45.28-1.04.28-1.78s-.09-1.35-.28-1.86c-.19-.51-.48-.8-.87-.88-.39-.07-.68.11-.87.55-.19.44-.28,1.03-.28,1.76Z"/>
    <path d="M15.18,74.47c-.72-.11-1.36-.35-1.93-.73-.57-.38-1.05-.87-1.45-1.47-.39-.6-.7-1.29-.91-2.07-.21-.78-.32-1.63-.32-2.55s.11-1.77.33-2.5c.22-.73.52-1.33.92-1.8.39-.48.86-.81,1.41-1.01.55-.2,1.14-.25,1.79-.14.42.07.81.18,1.15.31.34.14.65.3.92.47.27.18.51.37.7.57.2.2.37.4.51.6l-1.71,2.4c-.15-.22-.33-.41-.53-.55-.2-.15-.45-.25-.76-.29-.27-.04-.51,0-.7.11-.19.12-.35.29-.49.52-.13.23-.23.5-.29.81-.06.31-.09.65-.09,1.02,0,.34.03.68.08,1.02.05.34.13.64.24.92.11.28.26.51.44.69.18.19.4.3.67.34.18.03.34.01.47-.04v-1l-.94-.15v-3.11l3.7.59v6.62c-.36.23-.81.39-1.35.48-.54.09-1.16.08-1.86-.02Z"/>
    <path d="M19.32,68.98c0-.93.1-1.75.31-2.47.21-.72.51-1.31.89-1.78.39-.46.86-.79,1.42-.98.56-.19,1.18-.23,1.86-.11.69.11,1.31.36,1.86.73.56.37,1.03.85,1.42,1.44.39.59.69,1.27.89,2.05.21.78.31,1.62.31,2.54s-.1,1.73-.31,2.45c-.21.72-.51,1.31-.89,1.78-.39.47-.86.81-1.42,1.02-.56.21-1.18.26-1.86.16-.69-.1-1.31-.34-1.86-.72-.56-.38-1.03-.86-1.42-1.45-.39-.59-.69-1.28-.89-2.07-.21-.79-.31-1.65-.31-2.58ZM22.65,69.51c0,.75.09,1.39.28,1.91.19.52.48.81.87.88.39.06.68-.14.87-.61.19-.46.28-1.07.28-1.82s-.09-1.37-.28-1.89c-.19-.51-.48-.8-.87-.86-.39-.06-.68.13-.87.58-.19.45-.28,1.06-.28,1.8Z"/>
    <path d="M29.02,70.51c0-.91.1-1.73.31-2.43.21-.71.51-1.29.89-1.75.39-.46.86-.78,1.42-.97.56-.19,1.18-.22,1.86-.11.69.11,1.31.36,1.86.73.56.37,1.03.84,1.42,1.42.39.58.69,1.25.89,2.02.21.77.31,1.6.31,2.5s-.1,1.71-.31,2.41c-.21.71-.51,1.29-.89,1.75-.39.46-.86.8-1.42,1-.56.2-1.18.26-1.86.15-.69-.1-1.31-.34-1.86-.71-.56-.37-1.03-.85-1.42-1.44-.39-.59-.69-1.27-.89-2.05-.21-.78-.31-1.63-.31-2.54ZM32.35,71.04c0,.74.09,1.37.28,1.88.19.52.48.8.87.87.39.06.68-.14.87-.59.19-.46.28-1.05.28-1.79s-.09-1.36-.28-1.86c-.19-.5-.48-.79-.87-.85-.39-.06-.68.13-.87.57-.19.45-.28,1.04-.28,1.78Z"/>
    <path d="M39.14,77.77v-11.26l3.46.57c.88.15,1.62.41,2.24.79.61.38,1.11.85,1.49,1.4.38.56.65,1.19.83,1.9.17.71.26,1.48.26,2.3s-.09,1.53-.26,2.18c-.17.65-.45,1.19-.83,1.62-.38.43-.87.74-1.49.92-.61.19-1.36.21-2.24.08l-3.46-.52ZM44.08,72.95c0-.83-.13-1.5-.38-2-.25-.5-.6-.78-1.05-.86l-.2-.03v5.19l.2.03c.44.07.79-.11,1.05-.53.25-.42.38-1.02.38-1.81Z"/>
    <path d="M15.11,93.92l-3.24-.39v-8.66l-1.89-.25v-3.05l7.03.97v3.02l-1.89-.25v8.62Z"/>
    <path d="M17.19,88.33c0-.93.1-1.76.31-2.49.21-.73.51-1.33.89-1.81.39-.48.86-.82,1.42-1.02.56-.21,1.18-.26,1.86-.17.69.1,1.31.32,1.86.68.56.36,1.03.83,1.42,1.4.39.58.69,1.25.89,2.03.21.77.31,1.62.31,2.54s-.1,1.74-.31,2.46c-.21.73-.51,1.33-.89,1.81-.39.48-.86.84-1.42,1.06-.56.23-1.18.3-1.86.21-.69-.08-1.31-.31-1.86-.67-.56-.36-1.03-.83-1.42-1.42-.39-.58-.69-1.27-.89-2.05-.21-.79-.31-1.64-.31-2.57ZM20.52,88.77c0,.75.09,1.39.28,1.91.19.52.48.8.87.85.39.05.68-.16.87-.63.19-.47.28-1.08.28-1.83s-.09-1.38-.28-1.88c-.19-.51-.48-.79-.87-.84-.39-.05-.68.15-.87.61-.19.46-.28,1.07-.28,1.82Z"/>
    <path d="M34.53,96.56c-.72-.09-1.36-.31-1.93-.67-.57-.36-1.05-.82-1.45-1.4-.39-.57-.7-1.24-.91-2-.21-.76-.32-1.58-.32-2.47s.11-1.73.33-2.44c.22-.71.52-1.3.92-1.78.39-.47.86-.81,1.41-1.02.55-.21,1.14-.27,1.79-.18.42.06.81.15,1.15.28.34.13.65.27.92.44.27.17.51.34.7.54.2.19.37.38.51.57l-1.71,2.37c-.15-.21-.33-.39-.53-.53-.2-.14-.45-.23-.76-.27-.27-.04-.51,0-.7.12-.19.12-.35.29-.49.51-.13.22-.23.49-.29.8-.06.31-.09.64-.09.99,0,.33.03.66.08.99.05.33.13.62.24.89.11.27.26.49.44.67.18.18.4.28.67.32.18.02.34,0,.47-.05v-.98l-.94-.12v-3.03l3.7.49v6.44c-.36.23-.81.4-1.35.5-.54.1-1.16.11-1.86.02Z"/>
    <path d="M38.66,91.13c0-.9.1-1.7.31-2.41.21-.7.51-1.29.89-1.75.39-.46.86-.79,1.42-.99.56-.2,1.18-.25,1.86-.15.69.1,1.31.32,1.86.67.56.35,1.03.81,1.42,1.37.39.56.69,1.22.89,1.97.21.75.31,1.57.31,2.46s-.1,1.69-.31,2.39c-.21.7-.51,1.29-.89,1.75-.39.47-.86.81-1.42,1.02-.56.22-1.18.28-1.86.2-.69-.08-1.31-.3-1.86-.66-.56-.35-1.03-.81-1.42-1.38-.39-.57-.69-1.23-.89-2-.21-.76-.31-1.6-.31-2.5ZM42,91.57c0,.73.09,1.35.28,1.85.19.5.48.78.87.83.39.05.68-.15.87-.61.19-.45.28-1.05.28-1.77s-.09-1.33-.28-1.83c-.19-.49-.48-.77-.87-.82-.39-.05-.68.14-.87.59-.19.45-.28,1.03-.28,1.76Z"/>
  </g>
</svg>