<?xml version="1.0" encoding="UTF-8"?>
<svg id="Layer_2" data-name="Layer 2" xmlns="http://www.w3.org/2000/svg" width="58.4" height="86" viewBox="0 0 58.4 86">
  <defs>
    <style>
      .cls-1 {
        stroke-width: 1.5px;
      }

      .cls-1, .cls-2, .cls-3 {
        fill: none;
        stroke: #8cc63f;
        stroke-linecap: round;
        stroke-linejoin: round;
      }

      .cls-2 {
        stroke-width: 2px;
      }

      .cls-4 {
        fill: #8cc63f;
      }

      .cls-3 {
        stroke-width: 4px;
      }
    </style>
  </defs>
  <g id="vriezer">
    <path class="cls-4" d="M50.2,37.8v39.5H8.2v-39.5h42M50.2,33.8H8.2c-2.2,0-4,1.8-4,4v39.5c0,2.2,1.8,4,4,4h42c2.2,0,4-1.8,4-4v-39.5c0-2.2-1.8-4-4-4h0Z"/>
    <path class="cls-4" d="M50.2,4v29.4H8.2V4h42M50.2,0H8.2c-2.2,0-4,1.8-4,4v29.4c0,2.2,1.8,4,4,4h42c2.2,0,4-1.8,4-4V4c0-2.2-1.8-4-4-4h0Z"/>
    <line class="cls-2" x1="11.7" y1="42.9" x2="11.7" y2="53.4"/>
    <line class="cls-2" x1="11.7" y1="18.8" x2="11.7" y2="29.2"/>
    <rect class="cls-3" x="10.8" y="81.8" width="5.7" height="2.2"/>
    <rect class="cls-3" x="42.5" y="81.8" width="5.7" height="2.2"/>
    <g>
      <line class="cls-1" x1="40.3" y1="8.8" x2="40.2" y2="23.2"/>
      <line class="cls-1" x1="33" y1="15.5" x2="47.4" y2="15.5"/>
      <path class="cls-1" d="M33.8,12c1.2,1.2,2.4,2.4,3.6,3.5l-3.6,3.4"/>
      <path class="cls-1" d="M46.8,12.2c-1.2,1.2-2.4,2.4-3.6,3.5l3.6,3.4"/>
      <path class="cls-1" d="M36.8,9.3c1.2,1.2,2.4,2.4,3.5,3.6l3.4-3.6"/>
      <path class="cls-1" d="M36.7,22.5c1.2-1.2,2.4-2.4,3.5-3.6,1.1,1.2,2.3,2.4,3.4,3.6"/>
    </g>
  </g>
</svg>